<?xml version="1.0" encoding="UTF-8" standalone="no"?>
<!DOCTYPE svg PUBLIC "-//W3C//DTD SVG 1.1//EN"
 "http://www.w3.org/Graphics/SVG/1.1/DTD/svg11.dtd">
<!-- Generated by graphviz version 2.44.0 (20200518.1210)
 -->
<!-- Title: G Pages: 1 -->
<svg width="7105pt" height="7315pt"
 viewBox="0.00 0.00 7105.49 7314.65" xmlns="http://www.w3.org/2000/svg" xmlns:xlink="http://www.w3.org/1999/xlink">
<g id="graph0" class="graph" transform="scale(1 1) rotate(0) translate(4 7310.65)">
<title>G</title>
<polygon fill="white" stroke="transparent" points="-4,4 -4,-7310.65 7101.49,-7310.65 7101.49,4 -4,4"/>
<!-- n0 -->
<g id="node1" class="node">
<title>n0</title>
<ellipse fill="none" stroke="black" cx="3862.19" cy="-4100.81" rx="41.13" ry="18"/>
<text text-anchor="middle" x="3862.19" y="-4096.61" font-family="Times,serif" font-size="14.00">INICIO</text>
</g>
<!-- n1 -->
<g id="node2" class="node">
<title>n1</title>
<ellipse fill="none" stroke="black" cx="7062.32" cy="-4100.81" rx="35.35" ry="18"/>
<text text-anchor="middle" x="7062.32" y="-4096.61" font-family="Times,serif" font-size="14.00">public</text>
</g>
<!-- n0&#45;&gt;n1 -->
<g id="edge1" class="edge">
<title>n0&#45;&gt;n1</title>
<path fill="none" stroke="black" d="M3903.53,-4100.81C4249.23,-4100.81 6655.43,-4100.81 7016.9,-4100.81"/>
<polygon fill="black" stroke="black" points="7017,-4104.31 7027,-4100.81 7017,-4097.31 7017,-4104.31"/>
</g>
<!-- n2 -->
<g id="node3" class="node">
<title>n2</title>
<ellipse fill="none" stroke="black" cx="6222.01" cy="-6262.31" rx="116.33" ry="18"/>
<text text-anchor="middle" x="6222.01" y="-6258.11" font-family="Times,serif" font-size="14.00">SENTENCIA_INTERFAZ</text>
</g>
<!-- n0&#45;&gt;n2 -->
<g id="edge2" class="edge">
<title>n0&#45;&gt;n2</title>
<path fill="none" stroke="black" d="M3880.16,-4117.28C4083.52,-4303.55 5948.77,-6012.04 6195.18,-6237.74"/>
<polygon fill="black" stroke="black" points="6192.89,-6240.39 6202.63,-6244.56 6197.62,-6235.23 6192.89,-6240.39"/>
</g>
<!-- n7 -->
<g id="node8" class="node">
<title>n7</title>
<ellipse fill="none" stroke="black" cx="4142.38" cy="-7288.65" rx="35.35" ry="18"/>
<text text-anchor="middle" x="4142.38" y="-7284.45" font-family="Times,serif" font-size="14.00">public</text>
</g>
<!-- n0&#45;&gt;n7 -->
<g id="edge7" class="edge">
<title>n0&#45;&gt;n7</title>
<path fill="none" stroke="black" d="M3863.8,-4119.14C3885.22,-4362.8 4113.47,-6959.76 4139.89,-7260.33"/>
<polygon fill="black" stroke="black" points="4136.42,-7260.76 4140.78,-7270.42 4143.39,-7260.15 4136.42,-7260.76"/>
</g>
<!-- n8 -->
<g id="node9" class="node">
<title>n8</title>
<ellipse fill="none" stroke="black" cx="1125.65" cy="-5759.79" rx="100.16" ry="18"/>
<text text-anchor="middle" x="1125.65" y="-5755.59" font-family="Times,serif" font-size="14.00">SENTENCIA_CLASE</text>
</g>
<!-- n0&#45;&gt;n8 -->
<g id="edge8" class="edge">
<title>n0&#45;&gt;n8</title>
<path fill="none" stroke="black" d="M3838.11,-4115.41C3588.25,-4266.89 1471.22,-5550.3 1163.02,-5737.14"/>
<polygon fill="black" stroke="black" points="1161.17,-5734.17 1154.43,-5742.34 1164.8,-5740.15 1161.17,-5734.17"/>
</g>
<!-- n16 -->
<g id="node17" class="node">
<title>n16</title>
<ellipse fill="none" stroke="black" cx="3706.62" cy="-904.47" rx="79.33" ry="18"/>
<text text-anchor="middle" x="3706.62" y="-900.27" font-family="Times,serif" font-size="14.00">LISTA_CLASES</text>
</g>
<!-- n0&#45;&gt;n16 -->
<g id="edge16" class="edge">
<title>n0&#45;&gt;n16</title>
<path fill="none" stroke="black" d="M3861.29,-4082.44C3849.4,-3838.12 3722.67,-1234.23 3708,-932.86"/>
<polygon fill="black" stroke="black" points="3711.49,-932.57 3707.51,-922.75 3704.5,-932.91 3711.49,-932.57"/>
</g>
<!-- n3 -->
<g id="node4" class="node">
<title>n3</title>
<ellipse fill="none" stroke="black" cx="6212.87" cy="-6029.52" rx="44.62" ry="18"/>
<text text-anchor="middle" x="6212.87" y="-6025.32" font-family="Times,serif" font-size="14.00">interface</text>
</g>
<!-- n2&#45;&gt;n3 -->
<g id="edge3" class="edge">
<title>n2&#45;&gt;n3</title>
<path fill="none" stroke="black" d="M6221.29,-6244.05C6219.7,-6203.59 6215.88,-6106.19 6213.98,-6057.8"/>
<polygon fill="black" stroke="black" points="6217.47,-6057.56 6213.58,-6047.7 6210.48,-6057.83 6217.47,-6057.56"/>
</g>
<!-- n4 -->
<g id="node5" class="node">
<title>n4</title>
<ellipse fill="none" stroke="black" cx="6454.89" cy="-6268.84" rx="40.54" ry="18"/>
<text text-anchor="middle" x="6454.89" y="-6264.64" font-family="Times,serif" font-size="14.00">interfaz</text>
</g>
<!-- n2&#45;&gt;n4 -->
<g id="edge4" class="edge">
<title>n2&#45;&gt;n4</title>
<path fill="none" stroke="black" d="M6336.4,-6265.52C6360.2,-6266.18 6384.12,-6266.85 6404.17,-6267.42"/>
<polygon fill="black" stroke="black" points="6404.19,-6270.92 6414.28,-6267.7 6404.38,-6263.92 6404.19,-6270.92"/>
</g>
<!-- n5 -->
<g id="node6" class="node">
<title>n5</title>
<ellipse fill="none" stroke="black" cx="6217.62" cy="-6495.25" rx="27" ry="18"/>
<text text-anchor="middle" x="6217.62" y="-6491.05" font-family="Times,serif" font-size="14.00">{</text>
</g>
<!-- n2&#45;&gt;n5 -->
<g id="edge5" class="edge">
<title>n2&#45;&gt;n5</title>
<path fill="none" stroke="black" d="M6221.66,-6280.59C6220.9,-6321.07 6219.07,-6418.53 6218.16,-6466.95"/>
<polygon fill="black" stroke="black" points="6214.66,-6466.99 6217.97,-6477.05 6221.65,-6467.12 6214.66,-6466.99"/>
</g>
<!-- n6 -->
<g id="node7" class="node">
<title>n6</title>
<ellipse fill="none" stroke="black" cx="5989.3" cy="-6273.59" rx="27" ry="18"/>
<text text-anchor="middle" x="5989.3" y="-6269.39" font-family="Times,serif" font-size="14.00">}</text>
</g>
<!-- n2&#45;&gt;n6 -->
<g id="edge6" class="edge">
<title>n2&#45;&gt;n6</title>
<path fill="none" stroke="black" d="M6111.11,-6267.69C6080.65,-6269.17 6049.7,-6270.67 6026.62,-6271.78"/>
<polygon fill="black" stroke="black" points="6026.42,-6268.29 6016.6,-6272.27 6026.75,-6275.28 6026.42,-6268.29"/>
</g>
<!-- n9 -->
<g id="node10" class="node">
<title>n9</title>
<ellipse fill="none" stroke="black" cx="1943.68" cy="-5702.65" rx="29.61" ry="18"/>
<text text-anchor="middle" x="1943.68" y="-5698.45" font-family="Times,serif" font-size="14.00">class</text>
</g>
<!-- n8&#45;&gt;n9 -->
<g id="edge9" class="edge">
<title>n8&#45;&gt;n9</title>
<path fill="none" stroke="black" d="M1219.09,-5753.26C1397.3,-5740.81 1779.1,-5714.15 1903.55,-5705.45"/>
<polygon fill="black" stroke="black" points="1904.03,-5708.93 1913.77,-5704.74 1903.55,-5701.94 1904.03,-5708.93"/>
</g>
<!-- n10 -->
<g id="node11" class="node">
<title>n10</title>
<ellipse fill="none" stroke="black" cx="1639.23" cy="-6399.06" rx="37.7" ry="18"/>
<text text-anchor="middle" x="1639.23" y="-6394.86" font-family="Times,serif" font-size="14.00">Prueba</text>
</g>
<!-- n8&#45;&gt;n10 -->
<g id="edge10" class="edge">
<title>n8&#45;&gt;n10</title>
<path fill="none" stroke="black" d="M1140.2,-5777.89C1212.75,-5868.2 1535.4,-6269.82 1619.26,-6374.2"/>
<polygon fill="black" stroke="black" points="1616.54,-6376.41 1625.53,-6382.01 1622,-6372.03 1616.54,-6376.41"/>
</g>
<!-- n11 -->
<g id="node12" class="node">
<title>n11</title>
<ellipse fill="none" stroke="black" cx="896.26" cy="-6547.06" rx="27" ry="18"/>
<text text-anchor="middle" x="896.26" y="-6542.86" font-family="Times,serif" font-size="14.00">{</text>
</g>
<!-- n8&#45;&gt;n11 -->
<g id="edge11" class="edge">
<title>n8&#45;&gt;n11</title>
<path fill="none" stroke="black" d="M1120.32,-5778.09C1090.16,-5881.62 940.96,-6393.68 904.37,-6519.23"/>
<polygon fill="black" stroke="black" points="900.9,-6518.63 901.47,-6529.21 907.62,-6520.59 900.9,-6518.63"/>
</g>
<!-- n12 -->
<g id="node13" class="node">
<title>n12</title>
<ellipse fill="none" stroke="black" cx="375.92" cy="-5427.64" rx="194.47" ry="18"/>
<text text-anchor="middle" x="375.92" y="-5423.44" font-family="Times,serif" font-size="14.00">LISTA_DECLARACION_METODOS_FUNC</text>
</g>
<!-- n8&#45;&gt;n12 -->
<g id="edge12" class="edge">
<title>n8&#45;&gt;n12</title>
<path fill="none" stroke="black" d="M1087.96,-5743.09C963.43,-5687.92 565.21,-5511.5 425.18,-5449.46"/>
<polygon fill="black" stroke="black" points="426.51,-5446.22 415.95,-5445.37 423.67,-5452.62 426.51,-5446.22"/>
</g>
<!-- n15 -->
<g id="node16" class="node">
<title>n15</title>
<ellipse fill="none" stroke="black" cx="1554.65" cy="-5060.94" rx="27" ry="18"/>
<text text-anchor="middle" x="1554.65" y="-5056.74" font-family="Times,serif" font-size="14.00">}</text>
</g>
<!-- n8&#45;&gt;n15 -->
<g id="edge15" class="edge">
<title>n8&#45;&gt;n15</title>
<path fill="none" stroke="black" d="M1136.69,-5741.81C1195.3,-5646.33 1470.07,-5198.73 1538.96,-5086.51"/>
<polygon fill="black" stroke="black" points="1542.02,-5088.21 1544.27,-5077.86 1536.06,-5084.55 1542.02,-5088.21"/>
</g>
<!-- n13 -->
<g id="node14" class="node">
<title>n13</title>
<ellipse fill="none" stroke="black" cx="190.73" cy="-5845.66" rx="190.95" ry="18"/>
<text text-anchor="middle" x="190.73" y="-5841.46" font-family="Times,serif" font-size="14.00">DECLARACION_METODOS_FUNCIONES</text>
</g>
<!-- n12&#45;&gt;n13 -->
<g id="edge13" class="edge">
<title>n12&#45;&gt;n13</title>
<path fill="none" stroke="black" d="M367.84,-5445.87C338.6,-5511.87 238.13,-5738.65 202.99,-5817.99"/>
<polygon fill="black" stroke="black" points="199.7,-5816.77 198.85,-5827.33 206.1,-5819.61 199.7,-5816.77"/>
</g>
<!-- n14 -->
<g id="node15" class="node">
<title>n14</title>
<ellipse fill="none" stroke="black" cx="561.12" cy="-5009.61" rx="190.95" ry="18"/>
<text text-anchor="middle" x="561.12" y="-5005.41" font-family="Times,serif" font-size="14.00">DECLARACION_METODOS_FUNCIONES</text>
</g>
<!-- n12&#45;&gt;n14 -->
<g id="edge14" class="edge">
<title>n12&#45;&gt;n14</title>
<path fill="none" stroke="black" d="M384,-5409.41C413.24,-5343.4 513.71,-5116.63 548.86,-5037.29"/>
<polygon fill="black" stroke="black" points="552.15,-5038.5 553,-5027.94 545.75,-5035.67 552.15,-5038.5"/>
</g>
<!-- n17 -->
<g id="node18" class="node">
<title>n17</title>
<ellipse fill="none" stroke="black" cx="2089.42" cy="-983.18" rx="35.35" ry="18"/>
<text text-anchor="middle" x="2089.42" y="-978.98" font-family="Times,serif" font-size="14.00">public</text>
</g>
<!-- n16&#45;&gt;n17 -->
<g id="edge17" class="edge">
<title>n16&#45;&gt;n17</title>
<path fill="none" stroke="black" d="M3629.16,-908.24C3344.04,-922.12 2357.88,-970.11 2134.6,-980.98"/>
<polygon fill="black" stroke="black" points="2134.37,-977.49 2124.55,-981.47 2134.71,-984.48 2134.37,-977.49"/>
</g>
<!-- n18 -->
<g id="node19" class="node">
<title>n18</title>
<ellipse fill="none" stroke="black" cx="5323.82" cy="-825.76" rx="100.16" ry="18"/>
<text text-anchor="middle" x="5323.82" y="-821.56" font-family="Times,serif" font-size="14.00">SENTENCIA_CLASE</text>
</g>
<!-- n16&#45;&gt;n18 -->
<g id="edge18" class="edge">
<title>n16&#45;&gt;n18</title>
<path fill="none" stroke="black" d="M3784.07,-900.7C4048.07,-887.85 4913.05,-845.75 5217.03,-830.96"/>
<polygon fill="black" stroke="black" points="5217.35,-834.44 5227.17,-830.46 5217.01,-827.45 5217.35,-834.44"/>
</g>
<!-- n19 -->
<g id="node20" class="node">
<title>n19</title>
<ellipse fill="none" stroke="black" cx="4576.07" cy="-489.17" rx="29.61" ry="18"/>
<text text-anchor="middle" x="4576.07" y="-484.97" font-family="Times,serif" font-size="14.00">class</text>
</g>
<!-- n18&#45;&gt;n19 -->
<g id="edge19" class="edge">
<title>n18&#45;&gt;n19</title>
<path fill="none" stroke="black" d="M5286.48,-808.95C5157.48,-750.88 4731.76,-559.26 4609.29,-504.13"/>
<polygon fill="black" stroke="black" points="4610.58,-500.87 4600.02,-499.96 4607.71,-507.25 4610.58,-500.87"/>
</g>
<!-- n20 -->
<g id="node21" class="node">
<title>n20</title>
<ellipse fill="none" stroke="black" cx="5182.57" cy="-18" rx="52.73" ry="18"/>
<text text-anchor="middle" x="5182.57" y="-13.8" font-family="Times,serif" font-size="14.00">HashTable</text>
</g>
<!-- n18&#45;&gt;n20 -->
<g id="edge20" class="edge">
<title>n18&#45;&gt;n20</title>
<path fill="none" stroke="black" d="M5320.67,-807.75C5302.4,-703.26 5210,-174.87 5187.51,-46.25"/>
<polygon fill="black" stroke="black" points="5190.9,-45.29 5185.73,-36.05 5184,-46.5 5190.9,-45.29"/>
</g>
<!-- n21 -->
<g id="node22" class="node">
<title>n21</title>
<ellipse fill="none" stroke="black" cx="5911.03" cy="-253.38" rx="27" ry="18"/>
<text text-anchor="middle" x="5911.03" y="-249.18" font-family="Times,serif" font-size="14.00">{</text>
</g>
<!-- n18&#45;&gt;n21 -->
<g id="edge21" class="edge">
<title>n18&#45;&gt;n21</title>
<path fill="none" stroke="black" d="M5342.04,-808C5427.99,-724.22 5792.78,-368.64 5888.14,-275.69"/>
<polygon fill="black" stroke="black" points="5890.82,-277.97 5895.53,-268.49 5885.93,-272.96 5890.82,-277.97"/>
</g>
<!-- n22 -->
<g id="node23" class="node">
<title>n22</title>
<ellipse fill="none" stroke="black" cx="5817.74" cy="-1480.33" rx="194.47" ry="18"/>
<text text-anchor="middle" x="5817.74" y="-1476.13" font-family="Times,serif" font-size="14.00">LISTA_DECLARACION_METODOS_FUNC</text>
</g>
<!-- n18&#45;&gt;n22 -->
<g id="edge22" class="edge">
<title>n18&#45;&gt;n22</title>
<path fill="none" stroke="black" d="M5337.29,-843.61C5405.85,-934.48 5716.11,-1345.65 5797.92,-1454.06"/>
<polygon fill="black" stroke="black" points="5795.23,-1456.32 5804.05,-1462.19 5800.82,-1452.1 5795.23,-1456.32"/>
</g>
<!-- n25 -->
<g id="node26" class="node">
<title>n25</title>
<ellipse fill="none" stroke="black" cx="4612.29" cy="-1233.37" rx="27" ry="18"/>
<text text-anchor="middle" x="4612.29" y="-1229.17" font-family="Times,serif" font-size="14.00">}</text>
</g>
<!-- n18&#45;&gt;n25 -->
<g id="edge25" class="edge">
<title>n18&#45;&gt;n25</title>
<path fill="none" stroke="black" d="M5293.7,-843.01C5177.28,-909.7 4757.48,-1150.19 4641.92,-1216.39"/>
<polygon fill="black" stroke="black" points="4639.84,-1213.55 4632.91,-1221.55 4643.32,-1219.62 4639.84,-1213.55"/>
</g>
<!-- n23 -->
<g id="node24" class="node">
<title>n23</title>
<ellipse fill="none" stroke="black" cx="6182.7" cy="-1204.94" rx="190.95" ry="18"/>
<text text-anchor="middle" x="6182.7" y="-1200.74" font-family="Times,serif" font-size="14.00">DECLARACION_METODOS_FUNCIONES</text>
</g>
<!-- n22&#45;&gt;n23 -->
<g id="edge23" class="edge">
<title>n22&#45;&gt;n23</title>
<path fill="none" stroke="black" d="M5841.68,-1462.26C5905.23,-1414.31 6078.19,-1283.8 6150.38,-1229.33"/>
<polygon fill="black" stroke="black" points="6152.79,-1231.9 6158.67,-1223.08 6148.58,-1226.31 6152.79,-1231.9"/>
</g>
<!-- n24 -->
<g id="node25" class="node">
<title>n24</title>
<ellipse fill="none" stroke="black" cx="5452.77" cy="-1755.72" rx="190.95" ry="18"/>
<text text-anchor="middle" x="5452.77" y="-1751.52" font-family="Times,serif" font-size="14.00">DECLARACION_METODOS_FUNCIONES</text>
</g>
<!-- n22&#45;&gt;n24 -->
<g id="edge24" class="edge">
<title>n22&#45;&gt;n24</title>
<path fill="none" stroke="black" d="M5793.79,-1498.4C5730.24,-1546.35 5557.28,-1676.86 5485.1,-1731.33"/>
<polygon fill="black" stroke="black" points="5482.68,-1728.77 5476.81,-1737.59 5486.9,-1734.36 5482.68,-1728.77"/>
</g>
</g>
</svg>
