<?xml version="1.0" encoding="UTF-8" standalone="no"?>
<!DOCTYPE svg PUBLIC "-//W3C//DTD SVG 1.1//EN"
 "http://www.w3.org/Graphics/SVG/1.1/DTD/svg11.dtd">
<!-- Generated by graphviz version 2.44.0 (20200518.1210)
 -->
<!-- Title: G Pages: 1 -->
<svg width="1884pt" height="2340pt"
 viewBox="0.00 0.00 1883.89 2339.97" xmlns="http://www.w3.org/2000/svg" xmlns:xlink="http://www.w3.org/1999/xlink">
<g id="graph0" class="graph" transform="scale(1 1) rotate(0) translate(4 2335.97)">
<title>G</title>
<polygon fill="white" stroke="transparent" points="-4,4 -4,-2335.97 1879.89,-2335.97 1879.89,4 -4,4"/>
<!-- n0 -->
<g id="node1" class="node">
<title>n0</title>
<ellipse fill="none" stroke="black" cx="1010.07" cy="-1387.64" rx="41.13" ry="18"/>
<text text-anchor="middle" x="1010.07" y="-1383.44" font-family="Times,serif" font-size="14.00">INICIO</text>
</g>
<!-- n1 -->
<g id="node2" class="node">
<title>n1</title>
<ellipse fill="none" stroke="black" cx="1840.71" cy="-1387.64" rx="35.35" ry="18"/>
<text text-anchor="middle" x="1840.71" y="-1383.44" font-family="Times,serif" font-size="14.00">public</text>
</g>
<!-- n0&#45;&gt;n1 -->
<g id="edge1" class="edge">
<title>n0&#45;&gt;n1</title>
<path fill="none" stroke="black" d="M1051.27,-1387.64C1191.31,-1387.64 1648.46,-1387.64 1795.04,-1387.64"/>
<polygon fill="black" stroke="black" points="1795.45,-1391.14 1805.45,-1387.64 1795.45,-1384.14 1795.45,-1391.14"/>
</g>
<!-- n2 -->
<g id="node3" class="node">
<title>n2</title>
<ellipse fill="none" stroke="black" cx="1452.82" cy="-2090.45" rx="116.33" ry="18"/>
<text text-anchor="middle" x="1452.82" y="-2086.25" font-family="Times,serif" font-size="14.00">SENTENCIA_INTERFAZ</text>
</g>
<!-- n0&#45;&gt;n2 -->
<g id="edge2" class="edge">
<title>n0&#45;&gt;n2</title>
<path fill="none" stroke="black" d="M1021.02,-1405.02C1080.4,-1499.27 1363.88,-1949.28 1436.06,-2063.86"/>
<polygon fill="black" stroke="black" points="1433.16,-2065.82 1441.46,-2072.41 1439.09,-2062.09 1433.16,-2065.82"/>
</g>
<!-- n7 -->
<g id="node8" class="node">
<title>n7</title>
<ellipse fill="none" stroke="black" cx="651.42" cy="-2136.86" rx="35.35" ry="18"/>
<text text-anchor="middle" x="651.42" y="-2132.66" font-family="Times,serif" font-size="14.00">public</text>
</g>
<!-- n0&#45;&gt;n7 -->
<g id="edge7" class="edge">
<title>n0&#45;&gt;n7</title>
<path fill="none" stroke="black" d="M1001.56,-1405.42C954.05,-1504.68 721.7,-1990.05 664.27,-2110.01"/>
<polygon fill="black" stroke="black" points="661.01,-2108.71 659.85,-2119.24 667.32,-2111.73 661.01,-2108.71"/>
</g>
<!-- n8 -->
<g id="node9" class="node">
<title>n8</title>
<ellipse fill="none" stroke="black" cx="191.58" cy="-1529.14" rx="100.16" ry="18"/>
<text text-anchor="middle" x="191.58" y="-1524.94" font-family="Times,serif" font-size="14.00">SENTENCIA_CLASE</text>
</g>
<!-- n0&#45;&gt;n8 -->
<g id="edge8" class="edge">
<title>n0&#45;&gt;n8</title>
<path fill="none" stroke="black" d="M971.69,-1394.28C846.44,-1415.93 447.7,-1484.86 273.89,-1514.91"/>
<polygon fill="black" stroke="black" points="273.28,-1511.46 264.02,-1516.61 274.47,-1518.36 273.28,-1511.46"/>
</g>
<!-- n13 -->
<g id="node14" class="node">
<title>n13</title>
<ellipse fill="none" stroke="black" cx="1037.23" cy="-557.45" rx="79.33" ry="18"/>
<text text-anchor="middle" x="1037.23" y="-553.25" font-family="Times,serif" font-size="14.00">LISTA_CLASES</text>
</g>
<!-- n0&#45;&gt;n13 -->
<g id="edge13" class="edge">
<title>n0&#45;&gt;n13</title>
<path fill="none" stroke="black" d="M1010.67,-1369.53C1014.16,-1262.86 1032.02,-716.73 1036.31,-585.73"/>
<polygon fill="black" stroke="black" points="1039.81,-585.79 1036.64,-575.68 1032.81,-585.56 1039.81,-585.79"/>
</g>
<!-- n3 -->
<g id="node4" class="node">
<title>n3</title>
<ellipse fill="none" stroke="black" cx="1505.44" cy="-1863.49" rx="44.62" ry="18"/>
<text text-anchor="middle" x="1505.44" y="-1859.29" font-family="Times,serif" font-size="14.00">interface</text>
</g>
<!-- n2&#45;&gt;n3 -->
<g id="edge3" class="edge">
<title>n2&#45;&gt;n3</title>
<path fill="none" stroke="black" d="M1457.03,-2072.26C1466.22,-2032.65 1488.07,-1938.4 1498.99,-1891.29"/>
<polygon fill="black" stroke="black" points="1502.42,-1891.99 1501.27,-1881.45 1495.61,-1890.41 1502.42,-1891.99"/>
</g>
<!-- n4 -->
<g id="node5" class="node">
<title>n4</title>
<ellipse fill="none" stroke="black" cx="1675.72" cy="-2158.2" rx="40.54" ry="18"/>
<text text-anchor="middle" x="1675.72" y="-2154" font-family="Times,serif" font-size="14.00">interfaz</text>
</g>
<!-- n2&#45;&gt;n4 -->
<g id="edge4" class="edge">
<title>n2&#45;&gt;n4</title>
<path fill="none" stroke="black" d="M1505.64,-2106.5C1544.24,-2118.24 1595.95,-2133.95 1632.19,-2144.97"/>
<polygon fill="black" stroke="black" points="1631.39,-2148.38 1641.97,-2147.94 1633.42,-2141.68 1631.39,-2148.38"/>
</g>
<!-- n5 -->
<g id="node6" class="node">
<title>n5</title>
<ellipse fill="none" stroke="black" cx="1387.12" cy="-2313.97" rx="27" ry="18"/>
<text text-anchor="middle" x="1387.12" y="-2309.77" font-family="Times,serif" font-size="14.00">{</text>
</g>
<!-- n2&#45;&gt;n5 -->
<g id="edge5" class="edge">
<title>n2&#45;&gt;n5</title>
<path fill="none" stroke="black" d="M1447.44,-2108.74C1435.93,-2147.9 1408.84,-2240.05 1395.23,-2286.37"/>
<polygon fill="black" stroke="black" points="1391.85,-2285.47 1392.38,-2296.05 1398.56,-2287.44 1391.85,-2285.47"/>
</g>
<!-- n6 -->
<g id="node7" class="node">
<title>n6</title>
<ellipse fill="none" stroke="black" cx="1225.39" cy="-2039.92" rx="27" ry="18"/>
<text text-anchor="middle" x="1225.39" y="-2035.72" font-family="Times,serif" font-size="14.00">}</text>
</g>
<!-- n2&#45;&gt;n6 -->
<g id="edge6" class="edge">
<title>n2&#45;&gt;n6</title>
<path fill="none" stroke="black" d="M1386.12,-2075.63C1345.14,-2066.52 1294.27,-2055.22 1260.87,-2047.8"/>
<polygon fill="black" stroke="black" points="1261.62,-2044.38 1251.1,-2045.63 1260.1,-2051.21 1261.62,-2044.38"/>
</g>
<!-- n9 -->
<g id="node10" class="node">
<title>n9</title>
<ellipse fill="none" stroke="black" cx="356.16" cy="-1646.06" rx="29.61" ry="18"/>
<text text-anchor="middle" x="356.16" y="-1641.86" font-family="Times,serif" font-size="14.00">class</text>
</g>
<!-- n8&#45;&gt;n9 -->
<g id="edge9" class="edge">
<title>n8&#45;&gt;n9</title>
<path fill="none" stroke="black" d="M216.22,-1546.64C246.22,-1567.95 296.76,-1603.86 328.19,-1626.19"/>
<polygon fill="black" stroke="black" points="326.34,-1629.17 336.52,-1632.11 330.39,-1623.46 326.34,-1629.17"/>
</g>
<!-- n10 -->
<g id="node11" class="node">
<title>n10</title>
<ellipse fill="none" stroke="black" cx="73.52" cy="-1692.9" rx="27" ry="18"/>
<text text-anchor="middle" x="73.52" y="-1688.7" font-family="Times,serif" font-size="14.00">test</text>
</g>
<!-- n8&#45;&gt;n10 -->
<g id="edge10" class="edge">
<title>n8&#45;&gt;n10</title>
<path fill="none" stroke="black" d="M178.49,-1547.29C157.22,-1576.8 115.11,-1635.2 91.2,-1668.38"/>
<polygon fill="black" stroke="black" points="88.26,-1666.47 85.25,-1676.63 93.94,-1670.56 88.26,-1666.47"/>
</g>
<!-- n11 -->
<g id="node12" class="node">
<title>n11</title>
<ellipse fill="none" stroke="black" cx="27" cy="-1412.22" rx="27" ry="18"/>
<text text-anchor="middle" x="27" y="-1408.02" font-family="Times,serif" font-size="14.00">{</text>
</g>
<!-- n8&#45;&gt;n11 -->
<g id="edge11" class="edge">
<title>n8&#45;&gt;n11</title>
<path fill="none" stroke="black" d="M166.94,-1511.63C136.61,-1490.09 85.29,-1453.63 53.94,-1431.36"/>
<polygon fill="black" stroke="black" points="55.84,-1428.41 45.67,-1425.48 51.79,-1434.12 55.84,-1428.41"/>
</g>
<!-- n12 -->
<g id="node13" class="node">
<title>n12</title>
<ellipse fill="none" stroke="black" cx="307.36" cy="-1363.75" rx="27" ry="18"/>
<text text-anchor="middle" x="307.36" y="-1359.55" font-family="Times,serif" font-size="14.00">}</text>
</g>
<!-- n8&#45;&gt;n12 -->
<g id="edge12" class="edge">
<title>n8&#45;&gt;n12</title>
<path fill="none" stroke="black" d="M204.19,-1511.12C224.96,-1481.46 266.39,-1422.27 289.94,-1388.63"/>
<polygon fill="black" stroke="black" points="292.93,-1390.46 295.8,-1380.26 287.19,-1386.45 292.93,-1390.46"/>
</g>
<!-- n14 -->
<g id="node15" class="node">
<title>n14</title>
<ellipse fill="none" stroke="black" cx="719.29" cy="-853.4" rx="35.35" ry="18"/>
<text text-anchor="middle" x="719.29" y="-849.2" font-family="Times,serif" font-size="14.00">public</text>
</g>
<!-- n13&#45;&gt;n14 -->
<g id="edge14" class="edge">
<title>n13&#45;&gt;n14</title>
<path fill="none" stroke="black" d="M1018.3,-575.08C963.66,-625.93 805.76,-772.91 744.24,-830.18"/>
<polygon fill="black" stroke="black" points="741.49,-827.96 736.56,-837.33 746.26,-833.08 741.49,-827.96"/>
</g>
<!-- n15 -->
<g id="node16" class="node">
<title>n15</title>
<ellipse fill="none" stroke="black" cx="739.31" cy="-241.35" rx="100.16" ry="18"/>
<text text-anchor="middle" x="739.31" y="-237.15" font-family="Times,serif" font-size="14.00">SENTENCIA_CLASE</text>
</g>
<!-- n13&#45;&gt;n15 -->
<g id="edge15" class="edge">
<title>n13&#45;&gt;n15</title>
<path fill="none" stroke="black" d="M1020.36,-539.55C970.19,-486.32 821.8,-328.88 763.36,-266.87"/>
<polygon fill="black" stroke="black" points="765.77,-264.33 756.37,-259.45 760.68,-269.13 765.77,-264.33"/>
</g>
<!-- n20 -->
<g id="node21" class="node">
<title>n20</title>
<ellipse fill="none" stroke="black" cx="1351.47" cy="-257.57" rx="35.35" ry="18"/>
<text text-anchor="middle" x="1351.47" y="-253.37" font-family="Times,serif" font-size="14.00">public</text>
</g>
<!-- n13&#45;&gt;n20 -->
<g id="edge20" class="edge">
<title>n13&#45;&gt;n20</title>
<path fill="none" stroke="black" d="M1055.95,-539.59C1110.07,-487.94 1266.74,-338.43 1327.24,-280.7"/>
<polygon fill="black" stroke="black" points="1329.97,-282.93 1334.79,-273.5 1325.14,-277.87 1329.97,-282.93"/>
</g>
<!-- n21 -->
<g id="node22" class="node">
<title>n21</title>
<ellipse fill="none" stroke="black" cx="1335.15" cy="-873.55" rx="100.16" ry="18"/>
<text text-anchor="middle" x="1335.15" y="-869.35" font-family="Times,serif" font-size="14.00">SENTENCIA_CLASE</text>
</g>
<!-- n13&#45;&gt;n21 -->
<g id="edge21" class="edge">
<title>n13&#45;&gt;n21</title>
<path fill="none" stroke="black" d="M1054.1,-575.35C1104.27,-628.58 1252.66,-786.03 1311.11,-848.04"/>
<polygon fill="black" stroke="black" points="1308.69,-850.58 1318.1,-855.46 1313.79,-845.78 1308.69,-850.58"/>
</g>
<!-- n16 -->
<g id="node17" class="node">
<title>n16</title>
<ellipse fill="none" stroke="black" cx="738.42" cy="-466.29" rx="29.61" ry="18"/>
<text text-anchor="middle" x="738.42" y="-462.09" font-family="Times,serif" font-size="14.00">class</text>
</g>
<!-- n15&#45;&gt;n16 -->
<g id="edge16" class="edge">
<title>n15&#45;&gt;n16</title>
<path fill="none" stroke="black" d="M739.24,-259.38C739.08,-298.46 738.72,-391.2 738.53,-438.1"/>
<polygon fill="black" stroke="black" points="735.03,-438.17 738.49,-448.18 742.03,-438.2 735.03,-438.17"/>
</g>
<!-- n17 -->
<g id="node18" class="node">
<title>n17</title>
<ellipse fill="none" stroke="black" cx="514.88" cy="-226.14" rx="52.73" ry="18"/>
<text text-anchor="middle" x="514.88" y="-221.94" font-family="Times,serif" font-size="14.00">HashTable</text>
</g>
<!-- n15&#45;&gt;n17 -->
<g id="edge17" class="edge">
<title>n15&#45;&gt;n17</title>
<path fill="none" stroke="black" d="M645.43,-234.99C622.31,-233.42 598.12,-231.78 576.93,-230.35"/>
<polygon fill="black" stroke="black" points="577.01,-226.84 566.79,-229.66 576.53,-233.83 577.01,-226.84"/>
</g>
<!-- n18 -->
<g id="node19" class="node">
<title>n18</title>
<ellipse fill="none" stroke="black" cx="766" cy="-18" rx="27" ry="18"/>
<text text-anchor="middle" x="766" y="-13.8" font-family="Times,serif" font-size="14.00">{</text>
</g>
<!-- n15&#45;&gt;n18 -->
<g id="edge18" class="edge">
<title>n15&#45;&gt;n18</title>
<path fill="none" stroke="black" d="M741.49,-223.08C746.15,-184.12 757.08,-92.71 762.63,-46.22"/>
<polygon fill="black" stroke="black" points="766.11,-46.56 763.83,-36.22 759.16,-45.73 766.11,-46.56"/>
</g>
<!-- n19 -->
<g id="node20" class="node">
<title>n19</title>
<ellipse fill="none" stroke="black" cx="963.91" cy="-253.77" rx="27" ry="18"/>
<text text-anchor="middle" x="963.91" y="-249.57" font-family="Times,serif" font-size="14.00">}</text>
</g>
<!-- n15&#45;&gt;n19 -->
<g id="edge19" class="edge">
<title>n15&#45;&gt;n19</title>
<path fill="none" stroke="black" d="M835.21,-246.65C867.55,-248.44 901.75,-250.33 926.76,-251.72"/>
<polygon fill="black" stroke="black" points="926.7,-255.22 936.88,-252.27 927.09,-248.23 926.7,-255.22"/>
</g>
<!-- n22 -->
<g id="node23" class="node">
<title>n22</title>
<ellipse fill="none" stroke="black" cx="1335.45" cy="-645.91" rx="29.61" ry="18"/>
<text text-anchor="middle" x="1335.45" y="-641.71" font-family="Times,serif" font-size="14.00">class</text>
</g>
<!-- n21&#45;&gt;n22 -->
<g id="edge22" class="edge">
<title>n21&#45;&gt;n22</title>
<path fill="none" stroke="black" d="M1335.18,-855.31C1335.23,-815.67 1335.35,-721.44 1335.41,-674.09"/>
<polygon fill="black" stroke="black" points="1338.91,-673.93 1335.43,-663.93 1331.91,-673.92 1338.91,-673.93"/>
</g>
<!-- n23 -->
<g id="node24" class="node">
<title>n23</title>
<ellipse fill="none" stroke="black" cx="1562.23" cy="-889.52" rx="55.62" ry="18"/>
<text text-anchor="middle" x="1562.23" y="-885.32" font-family="Times,serif" font-size="14.00">holaMundo</text>
</g>
<!-- n21&#45;&gt;n23 -->
<g id="edge23" class="edge">
<title>n21&#45;&gt;n23</title>
<path fill="none" stroke="black" d="M1428.5,-880.12C1451.73,-881.75 1476.13,-883.46 1497.63,-884.98"/>
<polygon fill="black" stroke="black" points="1497.39,-888.47 1507.61,-885.68 1497.88,-881.49 1497.39,-888.47"/>
</g>
<!-- n24 -->
<g id="node25" class="node">
<title>n24</title>
<ellipse fill="none" stroke="black" cx="1306.37" cy="-1099.37" rx="27" ry="18"/>
<text text-anchor="middle" x="1306.37" y="-1095.17" font-family="Times,serif" font-size="14.00">{</text>
</g>
<!-- n21&#45;&gt;n24 -->
<g id="edge24" class="edge">
<title>n21&#45;&gt;n24</title>
<path fill="none" stroke="black" d="M1332.85,-891.65C1327.85,-930.88 1315.98,-1023.98 1309.98,-1071.06"/>
<polygon fill="black" stroke="black" points="1306.48,-1070.82 1308.69,-1081.18 1313.43,-1071.7 1306.48,-1070.82"/>
</g>
<!-- n25 -->
<g id="node26" class="node">
<title>n25</title>
<ellipse fill="none" stroke="black" cx="1107.89" cy="-860.38" rx="27" ry="18"/>
<text text-anchor="middle" x="1107.89" y="-856.18" font-family="Times,serif" font-size="14.00">}</text>
</g>
<!-- n21&#45;&gt;n25 -->
<g id="edge25" class="edge">
<title>n21&#45;&gt;n25</title>
<path fill="none" stroke="black" d="M1239.76,-868.02C1206.45,-866.09 1171,-864.04 1145.25,-862.55"/>
<polygon fill="black" stroke="black" points="1145.38,-859.05 1135.19,-861.96 1144.97,-866.04 1145.38,-859.05"/>
</g>
</g>
</svg>
