<?xml version="1.0" encoding="UTF-8" standalone="no"?>
<!DOCTYPE svg PUBLIC "-//W3C//DTD SVG 1.1//EN"
 "http://www.w3.org/Graphics/SVG/1.1/DTD/svg11.dtd">
<!-- Generated by graphviz version 2.44.0 (20200518.1210)
 -->
<!-- Title: G Pages: 1 -->
<svg width="2828pt" height="1268pt"
 viewBox="0.00 0.00 2827.57 1268.00" xmlns="http://www.w3.org/2000/svg" xmlns:xlink="http://www.w3.org/1999/xlink">
<g id="graph0" class="graph" transform="scale(1 1) rotate(0) translate(4 1264)">
<title>G</title>
<polygon fill="white" stroke="transparent" points="-4,4 -4,-1264 2823.57,-1264 2823.57,4 -4,4"/>
<!-- n0 -->
<g id="node1" class="node">
<title>n0</title>
<ellipse fill="none" stroke="black" cx="425.81" cy="-1242" rx="41.13" ry="18"/>
<text text-anchor="middle" x="425.81" y="-1237.8" font-family="Times,serif" font-size="14.00">INICIO</text>
</g>
<!-- n1 -->
<g id="node2" class="node">
<title>n1</title>
<ellipse fill="none" stroke="black" cx="172.81" cy="-1170" rx="35.35" ry="18"/>
<text text-anchor="middle" x="172.81" y="-1165.8" font-family="Times,serif" font-size="14.00">public</text>
</g>
<!-- n0&#45;&gt;n1 -->
<g id="edge1" class="edge">
<title>n0&#45;&gt;n1</title>
<path fill="none" stroke="black" d="M389.56,-1233.2C347.59,-1223.85 276.55,-1207.04 216.81,-1188 214.26,-1187.19 211.65,-1186.31 209.03,-1185.39"/>
<polygon fill="black" stroke="black" points="210.21,-1182.09 199.62,-1181.95 207.81,-1188.67 210.21,-1182.09"/>
</g>
<!-- n2 -->
<g id="node3" class="node">
<title>n2</title>
<ellipse fill="none" stroke="black" cx="341.81" cy="-1170" rx="116.33" ry="18"/>
<text text-anchor="middle" x="341.81" y="-1165.8" font-family="Times,serif" font-size="14.00">SENTENCIA_INTERFAZ</text>
</g>
<!-- n0&#45;&gt;n2 -->
<g id="edge2" class="edge">
<title>n0&#45;&gt;n2</title>
<path fill="none" stroke="black" d="M407.58,-1225.81C396.58,-1216.64 382.33,-1204.77 369.91,-1194.42"/>
<polygon fill="black" stroke="black" points="371.98,-1191.59 362.06,-1187.88 367.5,-1196.97 371.98,-1191.59"/>
</g>
<!-- n21 -->
<g id="node22" class="node">
<title>n21</title>
<ellipse fill="none" stroke="black" cx="510.81" cy="-1170" rx="35.35" ry="18"/>
<text text-anchor="middle" x="510.81" y="-1165.8" font-family="Times,serif" font-size="14.00">public</text>
</g>
<!-- n0&#45;&gt;n21 -->
<g id="edge21" class="edge">
<title>n0&#45;&gt;n21</title>
<path fill="none" stroke="black" d="M444.25,-1225.81C456.22,-1215.95 471.98,-1202.97 485.17,-1192.12"/>
<polygon fill="black" stroke="black" points="487.49,-1194.74 492.98,-1185.68 483.04,-1189.33 487.49,-1194.74"/>
</g>
<!-- n22 -->
<g id="node23" class="node">
<title>n22</title>
<ellipse fill="none" stroke="black" cx="886.81" cy="-1170" rx="100.16" ry="18"/>
<text text-anchor="middle" x="886.81" y="-1165.8" font-family="Times,serif" font-size="14.00">SENTENCIA_CLASE</text>
</g>
<!-- n0&#45;&gt;n22 -->
<g id="edge22" class="edge">
<title>n0&#45;&gt;n22</title>
<path fill="none" stroke="black" d="M463.93,-1235.21C537.86,-1223.99 702.3,-1199.02 802.95,-1183.73"/>
<polygon fill="black" stroke="black" points="803.73,-1187.16 813.09,-1182.19 802.68,-1180.23 803.73,-1187.16"/>
</g>
<!-- n3 -->
<g id="node4" class="node">
<title>n3</title>
<ellipse fill="none" stroke="black" cx="44.81" cy="-1098" rx="44.62" ry="18"/>
<text text-anchor="middle" x="44.81" y="-1093.8" font-family="Times,serif" font-size="14.00">interface</text>
</g>
<!-- n2&#45;&gt;n3 -->
<g id="edge3" class="edge">
<title>n2&#45;&gt;n3</title>
<path fill="none" stroke="black" d="M271.7,-1155.64C222.7,-1145.85 155.9,-1131.59 97.81,-1116 94.49,-1115.11 91.07,-1114.14 87.64,-1113.12"/>
<polygon fill="black" stroke="black" points="88.61,-1109.76 78.02,-1110.19 86.57,-1116.46 88.61,-1109.76"/>
</g>
<!-- n4 -->
<g id="node5" class="node">
<title>n4</title>
<ellipse fill="none" stroke="black" cx="147.81" cy="-1098" rx="40.54" ry="18"/>
<text text-anchor="middle" x="147.81" y="-1093.8" font-family="Times,serif" font-size="14.00">interfaz</text>
</g>
<!-- n2&#45;&gt;n4 -->
<g id="edge4" class="edge">
<title>n2&#45;&gt;n4</title>
<path fill="none" stroke="black" d="M298.27,-1153.29C265.17,-1141.35 219.98,-1125.04 187.78,-1113.42"/>
<polygon fill="black" stroke="black" points="188.83,-1110.08 178.24,-1109.98 186.46,-1116.67 188.83,-1110.08"/>
</g>
<!-- n5 -->
<g id="node6" class="node">
<title>n5</title>
<ellipse fill="none" stroke="black" cx="233.81" cy="-1098" rx="27" ry="18"/>
<text text-anchor="middle" x="233.81" y="-1093.8" font-family="Times,serif" font-size="14.00">{</text>
</g>
<!-- n2&#45;&gt;n5 -->
<g id="edge5" class="edge">
<title>n2&#45;&gt;n5</title>
<path fill="none" stroke="black" d="M316.21,-1152.41C299.69,-1141.7 278.2,-1127.77 261.31,-1116.83"/>
<polygon fill="black" stroke="black" points="262.76,-1113.59 252.46,-1111.09 258.95,-1119.47 262.76,-1113.59"/>
</g>
<!-- n6 -->
<g id="node7" class="node">
<title>n6</title>
<ellipse fill="none" stroke="black" cx="449.81" cy="-1098" rx="171.33" ry="18"/>
<text text-anchor="middle" x="449.81" y="-1093.8" font-family="Times,serif" font-size="14.00">LISTA_DECLARACION_FUNCIONES</text>
</g>
<!-- n2&#45;&gt;n6 -->
<g id="edge6" class="edge">
<title>n2&#45;&gt;n6</title>
<path fill="none" stroke="black" d="M367.4,-1152.41C381.59,-1143.22 399.42,-1131.66 414.87,-1121.64"/>
<polygon fill="black" stroke="black" points="417.16,-1124.33 423.65,-1115.96 413.35,-1118.46 417.16,-1124.33"/>
</g>
<!-- n20 -->
<g id="node21" class="node">
<title>n20</title>
<ellipse fill="none" stroke="black" cx="665.81" cy="-1098" rx="27" ry="18"/>
<text text-anchor="middle" x="665.81" y="-1093.8" font-family="Times,serif" font-size="14.00">}</text>
</g>
<!-- n2&#45;&gt;n20 -->
<g id="edge20" class="edge">
<title>n2&#45;&gt;n20</title>
<path fill="none" stroke="black" d="M421.01,-1156.79C492.42,-1145.34 591.88,-1128.22 629.81,-1116 631.73,-1115.38 633.69,-1114.68 635.64,-1113.93"/>
<polygon fill="black" stroke="black" points="637.42,-1116.97 645.24,-1109.83 634.67,-1110.54 637.42,-1116.97"/>
</g>
<!-- n7 -->
<g id="node8" class="node">
<title>n7</title>
<ellipse fill="none" stroke="black" cx="447.81" cy="-1026" rx="139.47" ry="18"/>
<text text-anchor="middle" x="447.81" y="-1021.8" font-family="Times,serif" font-size="14.00">DECLARACION_FUNCIONES</text>
</g>
<!-- n6&#45;&gt;n7 -->
<g id="edge7" class="edge">
<title>n6&#45;&gt;n7</title>
<path fill="none" stroke="black" d="M449.31,-1079.7C449.09,-1071.98 448.83,-1062.71 448.58,-1054.11"/>
<polygon fill="black" stroke="black" points="452.08,-1054 448.3,-1044.1 445.08,-1054.2 452.08,-1054"/>
</g>
<!-- n8 -->
<g id="node9" class="node">
<title>n8</title>
<ellipse fill="none" stroke="black" cx="275.81" cy="-954" rx="35.35" ry="18"/>
<text text-anchor="middle" x="275.81" y="-949.8" font-family="Times,serif" font-size="14.00">public</text>
</g>
<!-- n7&#45;&gt;n8 -->
<g id="edge8" class="edge">
<title>n7&#45;&gt;n8</title>
<path fill="none" stroke="black" d="M407.48,-1008.59C378.53,-996.8 339.84,-981.06 311.9,-969.69"/>
<polygon fill="black" stroke="black" points="313.08,-966.39 302.5,-965.86 310.44,-972.87 313.08,-966.39"/>
</g>
<!-- n9 -->
<g id="node10" class="node">
<title>n9</title>
<ellipse fill="none" stroke="black" cx="361.81" cy="-954" rx="32.48" ry="18"/>
<text text-anchor="middle" x="361.81" y="-949.8" font-family="Times,serif" font-size="14.00">TIPO</text>
</g>
<!-- n7&#45;&gt;n9 -->
<g id="edge9" class="edge">
<title>n7&#45;&gt;n9</title>
<path fill="none" stroke="black" d="M426.99,-1008.05C415,-998.3 399.84,-985.96 387.16,-975.64"/>
<polygon fill="black" stroke="black" points="389.21,-972.79 379.25,-969.19 384.79,-978.22 389.21,-972.79"/>
</g>
<!-- n11 -->
<g id="node12" class="node">
<title>n11</title>
<ellipse fill="none" stroke="black" cx="438.81" cy="-954" rx="27" ry="18"/>
<text text-anchor="middle" x="438.81" y="-949.8" font-family="Times,serif" font-size="14.00">ID</text>
</g>
<!-- n7&#45;&gt;n11 -->
<g id="edge11" class="edge">
<title>n7&#45;&gt;n11</title>
<path fill="none" stroke="black" d="M445.58,-1007.7C444.59,-999.98 443.4,-990.71 442.29,-982.11"/>
<polygon fill="black" stroke="black" points="445.75,-981.58 441.01,-972.1 438.81,-982.47 445.75,-981.58"/>
</g>
<!-- n13 -->
<g id="node14" class="node">
<title>n13</title>
<ellipse fill="none" stroke="black" cx="510.81" cy="-954" rx="27" ry="18"/>
<text text-anchor="middle" x="510.81" y="-949.8" font-family="Times,serif" font-size="14.00">(</text>
</g>
<!-- n7&#45;&gt;n13 -->
<g id="edge13" class="edge">
<title>n7&#45;&gt;n13</title>
<path fill="none" stroke="black" d="M463.06,-1008.05C471.33,-998.86 481.67,-987.38 490.61,-977.45"/>
<polygon fill="black" stroke="black" points="493.32,-979.66 497.41,-969.89 488.12,-974.98 493.32,-979.66"/>
</g>
<!-- n14 -->
<g id="node15" class="node">
<title>n14</title>
<ellipse fill="none" stroke="black" cx="756.81" cy="-954" rx="201.43" ry="18"/>
<text text-anchor="middle" x="756.81" y="-949.8" font-family="Times,serif" font-size="14.00">DECLARACION_PARAMETROS_INTERFAZ</text>
</g>
<!-- n7&#45;&gt;n14 -->
<g id="edge14" class="edge">
<title>n7&#45;&gt;n14</title>
<path fill="none" stroke="black" d="M513.72,-1010.07C561.41,-999.27 626.11,-984.61 676.77,-973.13"/>
<polygon fill="black" stroke="black" points="677.73,-976.5 686.7,-970.88 676.18,-969.68 677.73,-976.5"/>
</g>
<!-- n10 -->
<g id="node11" class="node">
<title>n10</title>
<ellipse fill="none" stroke="black" cx="361.81" cy="-882" rx="28.41" ry="18"/>
<text text-anchor="middle" x="361.81" y="-877.8" font-family="Times,serif" font-size="14.00">void</text>
</g>
<!-- n9&#45;&gt;n10 -->
<g id="edge10" class="edge">
<title>n9&#45;&gt;n10</title>
<path fill="none" stroke="black" d="M361.81,-935.7C361.81,-927.98 361.81,-918.71 361.81,-910.11"/>
<polygon fill="black" stroke="black" points="365.31,-910.1 361.81,-900.1 358.31,-910.1 365.31,-910.1"/>
</g>
<!-- n12 -->
<g id="node13" class="node">
<title>n12</title>
<ellipse fill="none" stroke="black" cx="438.81" cy="-882" rx="27.83" ry="18"/>
<text text-anchor="middle" x="438.81" y="-877.8" font-family="Times,serif" font-size="14.00">helo</text>
</g>
<!-- n11&#45;&gt;n12 -->
<g id="edge12" class="edge">
<title>n11&#45;&gt;n12</title>
<path fill="none" stroke="black" d="M438.81,-935.7C438.81,-927.98 438.81,-918.71 438.81,-910.11"/>
<polygon fill="black" stroke="black" points="442.31,-910.1 438.81,-900.1 435.31,-910.1 442.31,-910.1"/>
</g>
<!-- n15 -->
<g id="node16" class="node">
<title>n15</title>
<ellipse fill="none" stroke="black" cx="557.81" cy="-882" rx="32.48" ry="18"/>
<text text-anchor="middle" x="557.81" y="-877.8" font-family="Times,serif" font-size="14.00">TIPO</text>
</g>
<!-- n14&#45;&gt;n15 -->
<g id="edge15" class="edge">
<title>n14&#45;&gt;n15</title>
<path fill="none" stroke="black" d="M705.63,-936.57C674.81,-926.47 634.87,-913 599.81,-900 597.42,-899.11 594.97,-898.18 592.5,-897.23"/>
<polygon fill="black" stroke="black" points="593.62,-893.91 583.03,-893.49 591.05,-900.42 593.62,-893.91"/>
</g>
<!-- n17 -->
<g id="node18" class="node">
<title>n17</title>
<ellipse fill="none" stroke="black" cx="716.81" cy="-882" rx="108.26" ry="18"/>
<text text-anchor="middle" x="716.81" y="-877.8" font-family="Times,serif" font-size="14.00">LISTA_PARAMETROS</text>
</g>
<!-- n14&#45;&gt;n17 -->
<g id="edge17" class="edge">
<title>n14&#45;&gt;n17</title>
<path fill="none" stroke="black" d="M746.92,-935.7C742.32,-927.64 736.75,-917.89 731.66,-908.98"/>
<polygon fill="black" stroke="black" points="734.58,-907.05 726.58,-900.1 728.51,-910.52 734.58,-907.05"/>
</g>
<!-- n18 -->
<g id="node19" class="node">
<title>n18</title>
<ellipse fill="none" stroke="black" cx="869.81" cy="-882" rx="27" ry="18"/>
<text text-anchor="middle" x="869.81" y="-877.8" font-family="Times,serif" font-size="14.00">)</text>
</g>
<!-- n14&#45;&gt;n18 -->
<g id="edge18" class="edge">
<title>n14&#45;&gt;n18</title>
<path fill="none" stroke="black" d="M784.16,-936.05C801.63,-925.24 824.21,-911.25 841.8,-900.35"/>
<polygon fill="black" stroke="black" points="843.83,-903.21 850.49,-894.97 840.15,-897.26 843.83,-903.21"/>
</g>
<!-- n19 -->
<g id="node20" class="node">
<title>n19</title>
<ellipse fill="none" stroke="black" cx="941.81" cy="-882" rx="27" ry="18"/>
<text text-anchor="middle" x="941.81" y="-877.8" font-family="Times,serif" font-size="14.00">;</text>
</g>
<!-- n14&#45;&gt;n19 -->
<g id="edge19" class="edge">
<title>n14&#45;&gt;n19</title>
<path fill="none" stroke="black" d="M806.95,-936.56C836.07,-926.66 873.32,-913.41 905.81,-900 907.63,-899.25 909.49,-898.45 911.36,-897.63"/>
<polygon fill="black" stroke="black" points="912.98,-900.74 920.65,-893.42 910.09,-894.37 912.98,-900.74"/>
</g>
<!-- n16 -->
<g id="node17" class="node">
<title>n16</title>
<ellipse fill="none" stroke="black" cx="557.81" cy="-810" rx="33.06" ry="18"/>
<text text-anchor="middle" x="557.81" y="-805.8" font-family="Times,serif" font-size="14.00">string</text>
</g>
<!-- n15&#45;&gt;n16 -->
<g id="edge16" class="edge">
<title>n15&#45;&gt;n16</title>
<path fill="none" stroke="black" d="M557.81,-863.7C557.81,-855.98 557.81,-846.71 557.81,-838.11"/>
<polygon fill="black" stroke="black" points="561.31,-838.1 557.81,-828.1 554.31,-838.1 561.31,-838.1"/>
</g>
<!-- n23 -->
<g id="node24" class="node">
<title>n23</title>
<ellipse fill="none" stroke="black" cx="745.81" cy="-1098" rx="29.61" ry="18"/>
<text text-anchor="middle" x="745.81" y="-1093.8" font-family="Times,serif" font-size="14.00">class</text>
</g>
<!-- n22&#45;&gt;n23 -->
<g id="edge23" class="edge">
<title>n22&#45;&gt;n23</title>
<path fill="none" stroke="black" d="M854.46,-1152.94C831.31,-1141.45 800.3,-1126.05 777.34,-1114.65"/>
<polygon fill="black" stroke="black" points="778.86,-1111.5 768.34,-1110.19 775.74,-1117.77 778.86,-1111.5"/>
</g>
<!-- n24 -->
<g id="node25" class="node">
<title>n24</title>
<ellipse fill="none" stroke="black" cx="840.81" cy="-1098" rx="46.93" ry="18"/>
<text text-anchor="middle" x="840.81" y="-1093.8" font-family="Times,serif" font-size="14.00">prueba_1</text>
</g>
<!-- n22&#45;&gt;n24 -->
<g id="edge24" class="edge">
<title>n22&#45;&gt;n24</title>
<path fill="none" stroke="black" d="M875.67,-1152.05C870.19,-1143.71 863.47,-1133.49 857.4,-1124.25"/>
<polygon fill="black" stroke="black" points="860.26,-1122.22 851.84,-1115.79 854.41,-1126.07 860.26,-1122.22"/>
</g>
<!-- n25 -->
<g id="node26" class="node">
<title>n25</title>
<ellipse fill="none" stroke="black" cx="932.81" cy="-1098" rx="27" ry="18"/>
<text text-anchor="middle" x="932.81" y="-1093.8" font-family="Times,serif" font-size="14.00">{</text>
</g>
<!-- n22&#45;&gt;n25 -->
<g id="edge25" class="edge">
<title>n22&#45;&gt;n25</title>
<path fill="none" stroke="black" d="M897.94,-1152.05C903.59,-1143.47 910.54,-1132.89 916.75,-1123.44"/>
<polygon fill="black" stroke="black" points="919.84,-1125.11 922.41,-1114.83 913.99,-1121.26 919.84,-1125.11"/>
</g>
<!-- n26 -->
<g id="node27" class="node">
<title>n26</title>
<ellipse fill="none" stroke="black" cx="1171.81" cy="-1098" rx="194.47" ry="18"/>
<text text-anchor="middle" x="1171.81" y="-1093.8" font-family="Times,serif" font-size="14.00">LISTA_DECLARACION_METODOS_FUNC</text>
</g>
<!-- n22&#45;&gt;n26 -->
<g id="edge26" class="edge">
<title>n22&#45;&gt;n26</title>
<path fill="none" stroke="black" d="M943.46,-1155.09C987.5,-1144.27 1048.98,-1129.17 1097.06,-1117.36"/>
<polygon fill="black" stroke="black" points="1097.92,-1120.75 1106.8,-1114.97 1096.25,-1113.95 1097.92,-1120.75"/>
</g>
<!-- n88 -->
<g id="node88" class="node">
<title>n88</title>
<ellipse fill="none" stroke="black" cx="1410.81" cy="-1098" rx="27" ry="18"/>
<text text-anchor="middle" x="1410.81" y="-1093.8" font-family="Times,serif" font-size="14.00">}</text>
</g>
<!-- n22&#45;&gt;n88 -->
<g id="edge87" class="edge">
<title>n22&#45;&gt;n88</title>
<path fill="none" stroke="black" d="M986.32,-1167.82C1086.25,-1164.41 1243.77,-1152.93 1374.81,-1116 1376.75,-1115.45 1378.73,-1114.81 1380.69,-1114.09"/>
<polygon fill="black" stroke="black" points="1382.42,-1117.17 1390.32,-1110.11 1379.75,-1110.7 1382.42,-1117.17"/>
</g>
<!-- n27 -->
<g id="node28" class="node">
<title>n27</title>
<ellipse fill="none" stroke="black" cx="1172.81" cy="-1026" rx="190.95" ry="18"/>
<text text-anchor="middle" x="1172.81" y="-1021.8" font-family="Times,serif" font-size="14.00">DECLARACION_METODOS_FUNCIONES</text>
</g>
<!-- n26&#45;&gt;n27 -->
<g id="edge27" class="edge">
<title>n26&#45;&gt;n27</title>
<path fill="none" stroke="black" d="M1172.06,-1079.7C1172.17,-1071.98 1172.3,-1062.71 1172.42,-1054.11"/>
<polygon fill="black" stroke="black" points="1175.92,-1054.15 1172.56,-1044.1 1168.92,-1054.05 1175.92,-1054.15"/>
</g>
<!-- n28 -->
<g id="node29" class="node">
<title>n28</title>
<ellipse fill="none" stroke="black" cx="1011.81" cy="-954" rx="35.35" ry="18"/>
<text text-anchor="middle" x="1011.81" y="-949.8" font-family="Times,serif" font-size="14.00">public</text>
</g>
<!-- n27&#45;&gt;n28 -->
<g id="edge28" class="edge">
<title>n27&#45;&gt;n28</title>
<path fill="none" stroke="black" d="M1134.25,-1008.23C1107.85,-996.76 1073.11,-981.65 1047.37,-970.46"/>
<polygon fill="black" stroke="black" points="1048.56,-967.16 1037.99,-966.38 1045.76,-973.58 1048.56,-967.16"/>
</g>
<!-- n29 -->
<g id="node30" class="node">
<title>n29</title>
<ellipse fill="none" stroke="black" cx="1097.81" cy="-954" rx="32.48" ry="18"/>
<text text-anchor="middle" x="1097.81" y="-949.8" font-family="Times,serif" font-size="14.00">TIPO</text>
</g>
<!-- n27&#45;&gt;n29 -->
<g id="edge29" class="edge">
<title>n27&#45;&gt;n29</title>
<path fill="none" stroke="black" d="M1154.65,-1008.05C1144.61,-998.68 1132.01,-986.92 1121.23,-976.86"/>
<polygon fill="black" stroke="black" points="1123.46,-974.15 1113.76,-969.89 1118.68,-979.27 1123.46,-974.15"/>
</g>
<!-- n31 -->
<g id="node32" class="node">
<title>n31</title>
<ellipse fill="none" stroke="black" cx="1174.81" cy="-954" rx="27" ry="18"/>
<text text-anchor="middle" x="1174.81" y="-949.8" font-family="Times,serif" font-size="14.00">ID</text>
</g>
<!-- n27&#45;&gt;n31 -->
<g id="edge31" class="edge">
<title>n27&#45;&gt;n31</title>
<path fill="none" stroke="black" d="M1173.3,-1007.7C1173.52,-999.98 1173.79,-990.71 1174.03,-982.11"/>
<polygon fill="black" stroke="black" points="1177.53,-982.2 1174.32,-972.1 1170.54,-982 1177.53,-982.2"/>
</g>
<!-- n33 -->
<g id="node34" class="node">
<title>n33</title>
<ellipse fill="none" stroke="black" cx="1246.81" cy="-954" rx="27" ry="18"/>
<text text-anchor="middle" x="1246.81" y="-949.8" font-family="Times,serif" font-size="14.00">(</text>
</g>
<!-- n27&#45;&gt;n33 -->
<g id="edge33" class="edge">
<title>n27&#45;&gt;n33</title>
<path fill="none" stroke="black" d="M1190.72,-1008.05C1200.77,-998.55 1213.41,-986.59 1224.14,-976.44"/>
<polygon fill="black" stroke="black" points="1226.7,-978.84 1231.56,-969.42 1221.89,-973.75 1226.7,-978.84"/>
</g>
<!-- n34 -->
<g id="node35" class="node">
<title>n34</title>
<ellipse fill="none" stroke="black" cx="1471.81" cy="-954" rx="149.94" ry="18"/>
<text text-anchor="middle" x="1471.81" y="-949.8" font-family="Times,serif" font-size="14.00">DECLARACION_PARAMETROS</text>
</g>
<!-- n27&#45;&gt;n34 -->
<g id="edge34" class="edge">
<title>n27&#45;&gt;n34</title>
<path fill="none" stroke="black" d="M1240.66,-1009.12C1287.06,-998.25 1348.61,-983.84 1396.53,-972.62"/>
<polygon fill="black" stroke="black" points="1397.6,-975.97 1406.54,-970.28 1396.01,-969.15 1397.6,-975.97"/>
</g>
<!-- n30 -->
<g id="node31" class="node">
<title>n30</title>
<ellipse fill="none" stroke="black" cx="1082.81" cy="-882" rx="27" ry="18"/>
<text text-anchor="middle" x="1082.81" y="-877.8" font-family="Times,serif" font-size="14.00">int</text>
</g>
<!-- n29&#45;&gt;n30 -->
<g id="edge30" class="edge">
<title>n29&#45;&gt;n30</title>
<path fill="none" stroke="black" d="M1094.18,-936.05C1092.51,-928.26 1090.48,-918.82 1088.61,-910.08"/>
<polygon fill="black" stroke="black" points="1092.03,-909.32 1086.51,-900.28 1085.18,-910.79 1092.03,-909.32"/>
</g>
<!-- n32 -->
<g id="node33" class="node">
<title>n32</title>
<ellipse fill="none" stroke="black" cx="1174.81" cy="-882" rx="46.93" ry="18"/>
<text text-anchor="middle" x="1174.81" y="-877.8" font-family="Times,serif" font-size="14.00">fibonacci</text>
</g>
<!-- n31&#45;&gt;n32 -->
<g id="edge32" class="edge">
<title>n31&#45;&gt;n32</title>
<path fill="none" stroke="black" d="M1174.81,-935.7C1174.81,-927.98 1174.81,-918.71 1174.81,-910.11"/>
<polygon fill="black" stroke="black" points="1178.31,-910.1 1174.81,-900.1 1171.31,-910.1 1178.31,-910.1"/>
</g>
<!-- n35 -->
<g id="node36" class="node">
<title>n35</title>
<ellipse fill="none" stroke="black" cx="1271.81" cy="-882" rx="32.48" ry="18"/>
<text text-anchor="middle" x="1271.81" y="-877.8" font-family="Times,serif" font-size="14.00">TIPO</text>
</g>
<!-- n34&#45;&gt;n35 -->
<g id="edge35" class="edge">
<title>n34&#45;&gt;n35</title>
<path fill="none" stroke="black" d="M1420.64,-936.97C1389.32,-926.9 1348.52,-913.34 1312.81,-900 1310.7,-899.21 1308.53,-898.38 1306.36,-897.53"/>
<polygon fill="black" stroke="black" points="1307.43,-894.19 1296.85,-893.71 1304.83,-900.69 1307.43,-894.19"/>
</g>
<!-- n37 -->
<g id="node38" class="node">
<title>n37</title>
<ellipse fill="none" stroke="black" cx="1348.81" cy="-882" rx="27" ry="18"/>
<text text-anchor="middle" x="1348.81" y="-877.8" font-family="Times,serif" font-size="14.00">ID</text>
</g>
<!-- n34&#45;&gt;n37 -->
<g id="edge37" class="edge">
<title>n34&#45;&gt;n37</title>
<path fill="none" stroke="black" d="M1442.35,-936.23C1422.71,-925.06 1397.04,-910.45 1377.55,-899.36"/>
<polygon fill="black" stroke="black" points="1379.23,-896.29 1368.81,-894.38 1375.77,-902.37 1379.23,-896.29"/>
</g>
<!-- n39 -->
<g id="node40" class="node">
<title>n39</title>
<ellipse fill="none" stroke="black" cx="1501.81" cy="-882" rx="108.26" ry="18"/>
<text text-anchor="middle" x="1501.81" y="-877.8" font-family="Times,serif" font-size="14.00">LISTA_PARAMETROS</text>
</g>
<!-- n34&#45;&gt;n39 -->
<g id="edge39" class="edge">
<title>n34&#45;&gt;n39</title>
<path fill="none" stroke="black" d="M1479.22,-935.7C1482.6,-927.81 1486.68,-918.3 1490.43,-909.55"/>
<polygon fill="black" stroke="black" points="1493.76,-910.67 1494.48,-900.1 1487.32,-907.92 1493.76,-910.67"/>
</g>
<!-- n40 -->
<g id="node41" class="node">
<title>n40</title>
<ellipse fill="none" stroke="black" cx="1654.81" cy="-882" rx="27" ry="18"/>
<text text-anchor="middle" x="1654.81" y="-877.8" font-family="Times,serif" font-size="14.00">)</text>
</g>
<!-- n34&#45;&gt;n40 -->
<g id="edge40" class="edge">
<title>n34&#45;&gt;n40</title>
<path fill="none" stroke="black" d="M1519.92,-936.95C1548.84,-926.98 1586.24,-913.53 1618.81,-900 1620.63,-899.24 1622.49,-898.45 1624.36,-897.62"/>
<polygon fill="black" stroke="black" points="1625.98,-900.73 1633.64,-893.41 1623.09,-894.36 1625.98,-900.73"/>
</g>
<!-- n41 -->
<g id="node42" class="node">
<title>n41</title>
<ellipse fill="none" stroke="black" cx="1849.81" cy="-882" rx="149.92" ry="18"/>
<text text-anchor="middle" x="1849.81" y="-877.8" font-family="Times,serif" font-size="14.00">LISTA_INSTRUCCION_LLAVES</text>
</g>
<!-- n34&#45;&gt;n41 -->
<g id="edge41" class="edge">
<title>n34&#45;&gt;n41</title>
<path fill="none" stroke="black" d="M1549.67,-938.58C1611.42,-927.15 1697.72,-911.16 1761.94,-899.27"/>
<polygon fill="black" stroke="black" points="1762.85,-902.66 1772.05,-897.4 1761.58,-895.78 1762.85,-902.66"/>
</g>
<!-- n36 -->
<g id="node37" class="node">
<title>n36</title>
<ellipse fill="none" stroke="black" cx="1271.81" cy="-810" rx="27" ry="18"/>
<text text-anchor="middle" x="1271.81" y="-805.8" font-family="Times,serif" font-size="14.00">int</text>
</g>
<!-- n35&#45;&gt;n36 -->
<g id="edge36" class="edge">
<title>n35&#45;&gt;n36</title>
<path fill="none" stroke="black" d="M1271.81,-863.7C1271.81,-855.98 1271.81,-846.71 1271.81,-838.11"/>
<polygon fill="black" stroke="black" points="1275.31,-838.1 1271.81,-828.1 1268.31,-838.1 1275.31,-838.1"/>
</g>
<!-- n38 -->
<g id="node39" class="node">
<title>n38</title>
<ellipse fill="none" stroke="black" cx="1348.81" cy="-810" rx="27" ry="18"/>
<text text-anchor="middle" x="1348.81" y="-805.8" font-family="Times,serif" font-size="14.00">n</text>
</g>
<!-- n37&#45;&gt;n38 -->
<g id="edge38" class="edge">
<title>n37&#45;&gt;n38</title>
<path fill="none" stroke="black" d="M1348.81,-863.7C1348.81,-855.98 1348.81,-846.71 1348.81,-838.11"/>
<polygon fill="black" stroke="black" points="1352.31,-838.1 1348.81,-828.1 1345.31,-838.1 1352.31,-838.1"/>
</g>
<!-- n42 -->
<g id="node43" class="node">
<title>n42</title>
<ellipse fill="none" stroke="black" cx="1767.81" cy="-810" rx="27" ry="18"/>
<text text-anchor="middle" x="1767.81" y="-805.8" font-family="Times,serif" font-size="14.00">{</text>
</g>
<!-- n41&#45;&gt;n42 -->
<g id="edge42" class="edge">
<title>n41&#45;&gt;n42</title>
<path fill="none" stroke="black" d="M1829.96,-864.05C1818.48,-854.26 1803.96,-841.86 1791.84,-831.52"/>
<polygon fill="black" stroke="black" points="1793.78,-828.57 1783.9,-824.74 1789.24,-833.89 1793.78,-828.57"/>
</g>
<!-- n43 -->
<g id="node44" class="node">
<title>n43</title>
<ellipse fill="none" stroke="black" cx="1931.81" cy="-810" rx="119.28" ry="18"/>
<text text-anchor="middle" x="1931.81" y="-805.8" font-family="Times,serif" font-size="14.00">LISTA_INSTRUCCIONES</text>
</g>
<!-- n41&#45;&gt;n43 -->
<g id="edge43" class="edge">
<title>n41&#45;&gt;n43</title>
<path fill="none" stroke="black" d="M1869.66,-864.05C1880.03,-855.2 1892.9,-844.22 1904.22,-834.55"/>
<polygon fill="black" stroke="black" points="1906.81,-836.94 1912.14,-827.79 1902.26,-831.62 1906.81,-836.94"/>
</g>
<!-- n44 -->
<g id="node45" class="node">
<title>n44</title>
<ellipse fill="none" stroke="black" cx="1931.81" cy="-738" rx="75.88" ry="18"/>
<text text-anchor="middle" x="1931.81" y="-733.8" font-family="Times,serif" font-size="14.00">INSTRUCCION</text>
</g>
<!-- n43&#45;&gt;n44 -->
<g id="edge44" class="edge">
<title>n43&#45;&gt;n44</title>
<path fill="none" stroke="black" d="M1931.81,-791.7C1931.81,-783.98 1931.81,-774.71 1931.81,-766.11"/>
<polygon fill="black" stroke="black" points="1935.31,-766.1 1931.81,-756.1 1928.31,-766.1 1935.31,-766.1"/>
</g>
<!-- n45 -->
<g id="node46" class="node">
<title>n45</title>
<ellipse fill="none" stroke="black" cx="1931.81" cy="-666" rx="78.17" ry="18"/>
<text text-anchor="middle" x="1931.81" y="-661.8" font-family="Times,serif" font-size="14.00">SENTENCIA_IF</text>
</g>
<!-- n44&#45;&gt;n45 -->
<g id="edge45" class="edge">
<title>n44&#45;&gt;n45</title>
<path fill="none" stroke="black" d="M1931.81,-719.7C1931.81,-711.98 1931.81,-702.71 1931.81,-694.11"/>
<polygon fill="black" stroke="black" points="1935.31,-694.1 1931.81,-684.1 1928.31,-694.1 1935.31,-694.1"/>
</g>
<!-- n46 -->
<g id="node47" class="node">
<title>n46</title>
<ellipse fill="none" stroke="black" cx="1696.81" cy="-594" rx="27" ry="18"/>
<text text-anchor="middle" x="1696.81" y="-589.8" font-family="Times,serif" font-size="14.00">if</text>
</g>
<!-- n45&#45;&gt;n46 -->
<g id="edge46" class="edge">
<title>n45&#45;&gt;n46</title>
<path fill="none" stroke="black" d="M1876.5,-653.11C1836.11,-643.74 1780.32,-629.38 1732.81,-612 1730.96,-611.32 1729.07,-610.59 1727.19,-609.81"/>
<polygon fill="black" stroke="black" points="1728.42,-606.53 1717.86,-605.72 1725.61,-612.94 1728.42,-606.53"/>
</g>
<!-- n47 -->
<g id="node48" class="node">
<title>n47</title>
<ellipse fill="none" stroke="black" cx="1768.81" cy="-594" rx="27" ry="18"/>
<text text-anchor="middle" x="1768.81" y="-589.8" font-family="Times,serif" font-size="14.00">(</text>
</g>
<!-- n45&#45;&gt;n47 -->
<g id="edge47" class="edge">
<title>n45&#45;&gt;n47</title>
<path fill="none" stroke="black" d="M1894.66,-650.02C1869.24,-639.64 1834.83,-625.34 1804.81,-612 1803.01,-611.2 1801.16,-610.37 1799.3,-609.52"/>
<polygon fill="black" stroke="black" points="1800.6,-606.26 1790.05,-605.23 1797.65,-612.61 1800.6,-606.26"/>
</g>
<!-- n48 -->
<g id="node49" class="node">
<title>n48</title>
<ellipse fill="none" stroke="black" cx="1877.81" cy="-594" rx="64.28" ry="18"/>
<text text-anchor="middle" x="1877.81" y="-589.8" font-family="Times,serif" font-size="14.00">EXPRESION</text>
</g>
<!-- n45&#45;&gt;n48 -->
<g id="edge48" class="edge">
<title>n45&#45;&gt;n48</title>
<path fill="none" stroke="black" d="M1918.74,-648.05C1912.24,-639.63 1904.25,-629.28 1897.07,-619.97"/>
<polygon fill="black" stroke="black" points="1899.64,-617.57 1890.76,-611.79 1894.1,-621.84 1899.64,-617.57"/>
</g>
<!-- n68 -->
<g id="node69" class="node">
<title>n68</title>
<ellipse fill="none" stroke="black" cx="1986.81" cy="-594" rx="27" ry="18"/>
<text text-anchor="middle" x="1986.81" y="-589.8" font-family="Times,serif" font-size="14.00">)</text>
</g>
<!-- n45&#45;&gt;n68 -->
<g id="edge68" class="edge">
<title>n45&#45;&gt;n68</title>
<path fill="none" stroke="black" d="M1945.12,-648.05C1952.11,-639.17 1960.77,-628.14 1968.39,-618.45"/>
<polygon fill="black" stroke="black" points="1971.32,-620.38 1974.74,-610.36 1965.81,-616.06 1971.32,-620.38"/>
</g>
<!-- n69 -->
<g id="node70" class="node">
<title>n69</title>
<ellipse fill="none" stroke="black" cx="2262.81" cy="-594" rx="161.45" ry="18"/>
<text text-anchor="middle" x="2262.81" y="-589.8" font-family="Times,serif" font-size="14.00">LISTA_INSTRUCCIONES_LLAVES</text>
</g>
<!-- n45&#45;&gt;n69 -->
<g id="edge69" class="edge">
<title>n45&#45;&gt;n69</title>
<path fill="none" stroke="black" d="M1987.21,-653.28C2040.21,-642.08 2120.77,-625.04 2181.13,-612.27"/>
<polygon fill="black" stroke="black" points="2181.95,-615.68 2191.01,-610.18 2180.5,-608.83 2181.95,-615.68"/>
</g>
<!-- n85 -->
<g id="node86" class="node">
<title>n85</title>
<ellipse fill="none" stroke="black" cx="2516.81" cy="-594" rx="74.74" ry="18"/>
<text text-anchor="middle" x="2516.81" y="-589.8" font-family="Times,serif" font-size="14.00">OPCION_ELSE</text>
</g>
<!-- n45&#45;&gt;n85 -->
<g id="edge85" class="edge">
<title>n45&#45;&gt;n85</title>
<path fill="none" stroke="black" d="M2004.68,-659.46C2102.45,-651.53 2281.31,-635.29 2432.81,-612 2439.43,-610.98 2446.32,-609.8 2453.18,-608.53"/>
<polygon fill="black" stroke="black" points="2454,-611.94 2463.17,-606.64 2452.69,-605.06 2454,-611.94"/>
</g>
<!-- n49 -->
<g id="node50" class="node">
<title>n49</title>
<ellipse fill="none" stroke="black" cx="1444.81" cy="-522" rx="87.98" ry="18"/>
<text text-anchor="middle" x="1444.81" y="-517.8" font-family="Times,serif" font-size="14.00">OPERADOR_NOT</text>
</g>
<!-- n48&#45;&gt;n49 -->
<g id="edge49" class="edge">
<title>n48&#45;&gt;n49</title>
<path fill="none" stroke="black" d="M1831.21,-581.47C1822.47,-579.5 1813.38,-577.58 1804.81,-576 1688.79,-554.6 1658.38,-558.19 1541.81,-540 1534.21,-538.81 1526.28,-537.52 1518.38,-536.19"/>
<polygon fill="black" stroke="black" points="1518.85,-532.72 1508.41,-534.5 1517.68,-539.62 1518.85,-532.72"/>
</g>
<!-- n50 -->
<g id="node51" class="node">
<title>n50</title>
<ellipse fill="none" stroke="black" cx="1577.81" cy="-522" rx="27" ry="18"/>
<text text-anchor="middle" x="1577.81" y="-517.8" font-family="Times,serif" font-size="14.00">E</text>
</g>
<!-- n48&#45;&gt;n50 -->
<g id="edge50" class="edge">
<title>n48&#45;&gt;n50</title>
<path fill="none" stroke="black" d="M1830.75,-581.73C1822.14,-579.76 1813.21,-577.77 1804.81,-576 1720.28,-558.2 1695.98,-566.66 1613.81,-540 1611.89,-539.38 1609.93,-538.67 1607.98,-537.92"/>
<polygon fill="black" stroke="black" points="1608.95,-534.53 1598.38,-533.81 1606.2,-540.96 1608.95,-534.53"/>
</g>
<!-- n57 -->
<g id="node58" class="node">
<title>n57</title>
<ellipse fill="none" stroke="black" cx="1687.81" cy="-522" rx="65.41" ry="18"/>
<text text-anchor="middle" x="1687.81" y="-517.8" font-family="Times,serif" font-size="14.00">CONDICION</text>
</g>
<!-- n48&#45;&gt;n57 -->
<g id="edge57" class="edge">
<title>n48&#45;&gt;n57</title>
<path fill="none" stroke="black" d="M1840.27,-579.17C1810.08,-568.05 1767.5,-552.36 1735,-540.39"/>
<polygon fill="black" stroke="black" points="1735.86,-536.97 1725.27,-536.8 1733.44,-543.54 1735.86,-536.97"/>
</g>
<!-- n58 -->
<g id="node59" class="node">
<title>n58</title>
<ellipse fill="none" stroke="black" cx="1877.81" cy="-522" rx="106.5" ry="18"/>
<text text-anchor="middle" x="1877.81" y="-517.8" font-family="Times,serif" font-size="14.00">CONDICION_LOGICA</text>
</g>
<!-- n48&#45;&gt;n58 -->
<g id="edge58" class="edge">
<title>n48&#45;&gt;n58</title>
<path fill="none" stroke="black" d="M1877.81,-575.7C1877.81,-567.98 1877.81,-558.71 1877.81,-550.11"/>
<polygon fill="black" stroke="black" points="1881.31,-550.1 1877.81,-540.1 1874.31,-550.1 1881.31,-550.1"/>
</g>
<!-- n67 -->
<g id="node68" class="node">
<title>n67</title>
<ellipse fill="none" stroke="black" cx="2109.81" cy="-522" rx="107.68" ry="18"/>
<text text-anchor="middle" x="2109.81" y="-517.8" font-family="Times,serif" font-size="14.00">LISTA_EXPRESIONES</text>
</g>
<!-- n48&#45;&gt;n67 -->
<g id="edge67" class="edge">
<title>n48&#45;&gt;n67</title>
<path fill="none" stroke="black" d="M1919.82,-580.32C1956.25,-569.33 2009.39,-553.3 2050.22,-540.98"/>
<polygon fill="black" stroke="black" points="2051.48,-544.25 2060.05,-538.01 2049.46,-537.55 2051.48,-544.25"/>
</g>
<!-- n51 -->
<g id="node52" class="node">
<title>n51</title>
<ellipse fill="none" stroke="black" cx="1541.81" cy="-450" rx="27" ry="18"/>
<text text-anchor="middle" x="1541.81" y="-445.8" font-family="Times,serif" font-size="14.00">T</text>
</g>
<!-- n50&#45;&gt;n51 -->
<g id="edge51" class="edge">
<title>n50&#45;&gt;n51</title>
<path fill="none" stroke="black" d="M1569.46,-504.76C1565.1,-496.28 1559.66,-485.71 1554.77,-476.2"/>
<polygon fill="black" stroke="black" points="1557.8,-474.44 1550.11,-467.15 1551.57,-477.64 1557.8,-474.44"/>
</g>
<!-- n56 -->
<g id="node57" class="node">
<title>n56</title>
<ellipse fill="none" stroke="black" cx="1613.81" cy="-450" rx="27" ry="18"/>
<text text-anchor="middle" x="1613.81" y="-445.8" font-family="Times,serif" font-size="14.00">EP</text>
</g>
<!-- n50&#45;&gt;n56 -->
<g id="edge56" class="edge">
<title>n50&#45;&gt;n56</title>
<path fill="none" stroke="black" d="M1586.16,-504.76C1590.52,-496.28 1595.96,-485.71 1600.85,-476.2"/>
<polygon fill="black" stroke="black" points="1604.04,-477.64 1605.5,-467.15 1597.82,-474.44 1604.04,-477.64"/>
</g>
<!-- n52 -->
<g id="node53" class="node">
<title>n52</title>
<ellipse fill="none" stroke="black" cx="1505.81" cy="-378" rx="27" ry="18"/>
<text text-anchor="middle" x="1505.81" y="-373.8" font-family="Times,serif" font-size="14.00">F</text>
</g>
<!-- n51&#45;&gt;n52 -->
<g id="edge52" class="edge">
<title>n51&#45;&gt;n52</title>
<path fill="none" stroke="black" d="M1533.46,-432.76C1529.1,-424.28 1523.66,-413.71 1518.77,-404.2"/>
<polygon fill="black" stroke="black" points="1521.8,-402.44 1514.11,-395.15 1515.57,-405.64 1521.8,-402.44"/>
</g>
<!-- n55 -->
<g id="node56" class="node">
<title>n55</title>
<ellipse fill="none" stroke="black" cx="1577.81" cy="-378" rx="27" ry="18"/>
<text text-anchor="middle" x="1577.81" y="-373.8" font-family="Times,serif" font-size="14.00">TP</text>
</g>
<!-- n51&#45;&gt;n55 -->
<g id="edge55" class="edge">
<title>n51&#45;&gt;n55</title>
<path fill="none" stroke="black" d="M1550.16,-432.76C1554.52,-424.28 1559.96,-413.71 1564.85,-404.2"/>
<polygon fill="black" stroke="black" points="1568.04,-405.64 1569.5,-395.15 1561.82,-402.44 1568.04,-405.64"/>
</g>
<!-- n53 -->
<g id="node54" class="node">
<title>n53</title>
<ellipse fill="none" stroke="black" cx="1505.81" cy="-306" rx="27" ry="18"/>
<text text-anchor="middle" x="1505.81" y="-301.8" font-family="Times,serif" font-size="14.00">ID</text>
</g>
<!-- n52&#45;&gt;n53 -->
<g id="edge53" class="edge">
<title>n52&#45;&gt;n53</title>
<path fill="none" stroke="black" d="M1505.81,-359.7C1505.81,-351.98 1505.81,-342.71 1505.81,-334.11"/>
<polygon fill="black" stroke="black" points="1509.31,-334.1 1505.81,-324.1 1502.31,-334.1 1509.31,-334.1"/>
</g>
<!-- n54 -->
<g id="node55" class="node">
<title>n54</title>
<ellipse fill="none" stroke="black" cx="1505.81" cy="-234" rx="27" ry="18"/>
<text text-anchor="middle" x="1505.81" y="-229.8" font-family="Times,serif" font-size="14.00">n</text>
</g>
<!-- n53&#45;&gt;n54 -->
<g id="edge54" class="edge">
<title>n53&#45;&gt;n54</title>
<path fill="none" stroke="black" d="M1505.81,-287.7C1505.81,-279.98 1505.81,-270.71 1505.81,-262.11"/>
<polygon fill="black" stroke="black" points="1509.31,-262.1 1505.81,-252.1 1502.31,-262.1 1509.31,-262.1"/>
</g>
<!-- n59 -->
<g id="node60" class="node">
<title>n59</title>
<ellipse fill="none" stroke="black" cx="1841.81" cy="-450" rx="27" ry="18"/>
<text text-anchor="middle" x="1841.81" y="-445.8" font-family="Times,serif" font-size="14.00">&gt;</text>
</g>
<!-- n58&#45;&gt;n59 -->
<g id="edge59" class="edge">
<title>n58&#45;&gt;n59</title>
<path fill="none" stroke="black" d="M1869.09,-504.05C1864.83,-495.77 1859.61,-485.62 1854.88,-476.42"/>
<polygon fill="black" stroke="black" points="1857.88,-474.6 1850.2,-467.31 1851.66,-477.8 1857.88,-474.6"/>
</g>
<!-- n60 -->
<g id="node61" class="node">
<title>n60</title>
<ellipse fill="none" stroke="black" cx="1913.81" cy="-450" rx="27" ry="18"/>
<text text-anchor="middle" x="1913.81" y="-445.8" font-family="Times,serif" font-size="14.00">E</text>
</g>
<!-- n58&#45;&gt;n60 -->
<g id="edge60" class="edge">
<title>n58&#45;&gt;n60</title>
<path fill="none" stroke="black" d="M1886.52,-504.05C1890.79,-495.77 1896.01,-485.62 1900.73,-476.42"/>
<polygon fill="black" stroke="black" points="1903.96,-477.8 1905.42,-467.31 1897.74,-474.6 1903.96,-477.8"/>
</g>
<!-- n61 -->
<g id="node62" class="node">
<title>n61</title>
<ellipse fill="none" stroke="black" cx="1877.81" cy="-378" rx="27" ry="18"/>
<text text-anchor="middle" x="1877.81" y="-373.8" font-family="Times,serif" font-size="14.00">T</text>
</g>
<!-- n60&#45;&gt;n61 -->
<g id="edge61" class="edge">
<title>n60&#45;&gt;n61</title>
<path fill="none" stroke="black" d="M1905.46,-432.76C1901.1,-424.28 1895.66,-413.71 1890.77,-404.2"/>
<polygon fill="black" stroke="black" points="1893.8,-402.44 1886.11,-395.15 1887.57,-405.64 1893.8,-402.44"/>
</g>
<!-- n66 -->
<g id="node67" class="node">
<title>n66</title>
<ellipse fill="none" stroke="black" cx="1949.81" cy="-378" rx="27" ry="18"/>
<text text-anchor="middle" x="1949.81" y="-373.8" font-family="Times,serif" font-size="14.00">EP</text>
</g>
<!-- n60&#45;&gt;n66 -->
<g id="edge66" class="edge">
<title>n60&#45;&gt;n66</title>
<path fill="none" stroke="black" d="M1922.16,-432.76C1926.52,-424.28 1931.96,-413.71 1936.85,-404.2"/>
<polygon fill="black" stroke="black" points="1940.04,-405.64 1941.5,-395.15 1933.82,-402.44 1940.04,-405.64"/>
</g>
<!-- n62 -->
<g id="node63" class="node">
<title>n62</title>
<ellipse fill="none" stroke="black" cx="1841.81" cy="-306" rx="27" ry="18"/>
<text text-anchor="middle" x="1841.81" y="-301.8" font-family="Times,serif" font-size="14.00">F</text>
</g>
<!-- n61&#45;&gt;n62 -->
<g id="edge62" class="edge">
<title>n61&#45;&gt;n62</title>
<path fill="none" stroke="black" d="M1869.46,-360.76C1865.1,-352.28 1859.66,-341.71 1854.77,-332.2"/>
<polygon fill="black" stroke="black" points="1857.8,-330.44 1850.11,-323.15 1851.57,-333.64 1857.8,-330.44"/>
</g>
<!-- n65 -->
<g id="node66" class="node">
<title>n65</title>
<ellipse fill="none" stroke="black" cx="1913.81" cy="-306" rx="27" ry="18"/>
<text text-anchor="middle" x="1913.81" y="-301.8" font-family="Times,serif" font-size="14.00">TP</text>
</g>
<!-- n61&#45;&gt;n65 -->
<g id="edge65" class="edge">
<title>n61&#45;&gt;n65</title>
<path fill="none" stroke="black" d="M1886.16,-360.76C1890.52,-352.28 1895.96,-341.71 1900.85,-332.2"/>
<polygon fill="black" stroke="black" points="1904.04,-333.64 1905.5,-323.15 1897.82,-330.44 1904.04,-333.64"/>
</g>
<!-- n63 -->
<g id="node64" class="node">
<title>n63</title>
<ellipse fill="none" stroke="black" cx="1841.81" cy="-234" rx="52.75" ry="18"/>
<text text-anchor="middle" x="1841.81" y="-229.8" font-family="Times,serif" font-size="14.00">NUMERO</text>
</g>
<!-- n62&#45;&gt;n63 -->
<g id="edge63" class="edge">
<title>n62&#45;&gt;n63</title>
<path fill="none" stroke="black" d="M1841.81,-287.7C1841.81,-279.98 1841.81,-270.71 1841.81,-262.11"/>
<polygon fill="black" stroke="black" points="1845.31,-262.1 1841.81,-252.1 1838.31,-262.1 1845.31,-262.1"/>
</g>
<!-- n64 -->
<g id="node65" class="node">
<title>n64</title>
<ellipse fill="none" stroke="black" cx="1841.81" cy="-162" rx="27" ry="18"/>
<text text-anchor="middle" x="1841.81" y="-157.8" font-family="Times,serif" font-size="14.00">1</text>
</g>
<!-- n63&#45;&gt;n64 -->
<g id="edge64" class="edge">
<title>n63&#45;&gt;n64</title>
<path fill="none" stroke="black" d="M1841.81,-215.7C1841.81,-207.98 1841.81,-198.71 1841.81,-190.11"/>
<polygon fill="black" stroke="black" points="1845.31,-190.1 1841.81,-180.1 1838.31,-190.1 1845.31,-190.1"/>
</g>
<!-- n70 -->
<g id="node71" class="node">
<title>n70</title>
<ellipse fill="none" stroke="black" cx="2262.81" cy="-522" rx="27" ry="18"/>
<text text-anchor="middle" x="2262.81" y="-517.8" font-family="Times,serif" font-size="14.00">{</text>
</g>
<!-- n69&#45;&gt;n70 -->
<g id="edge70" class="edge">
<title>n69&#45;&gt;n70</title>
<path fill="none" stroke="black" d="M2262.81,-575.7C2262.81,-567.98 2262.81,-558.71 2262.81,-550.11"/>
<polygon fill="black" stroke="black" points="2266.31,-550.1 2262.81,-540.1 2259.31,-550.1 2266.31,-550.1"/>
</g>
<!-- n71 -->
<g id="node72" class="node">
<title>n71</title>
<ellipse fill="none" stroke="black" cx="2426.81" cy="-522" rx="119.28" ry="18"/>
<text text-anchor="middle" x="2426.81" y="-517.8" font-family="Times,serif" font-size="14.00">LISTA_INSTRUCCIONES</text>
</g>
<!-- n69&#45;&gt;n71 -->
<g id="edge71" class="edge">
<title>n69&#45;&gt;n71</title>
<path fill="none" stroke="black" d="M2301.67,-576.41C2325.11,-566.41 2355.11,-553.6 2379.86,-543.04"/>
<polygon fill="black" stroke="black" points="2381.25,-546.25 2389.07,-539.11 2378.5,-539.81 2381.25,-546.25"/>
</g>
<!-- n84 -->
<g id="node85" class="node">
<title>n84</title>
<ellipse fill="none" stroke="black" cx="2590.81" cy="-522" rx="27" ry="18"/>
<text text-anchor="middle" x="2590.81" y="-517.8" font-family="Times,serif" font-size="14.00">}</text>
</g>
<!-- n69&#45;&gt;n84 -->
<g id="edge84" class="edge">
<title>n69&#45;&gt;n84</title>
<path fill="none" stroke="black" d="M2369.52,-580.47C2425.55,-572.19 2494.83,-559.24 2554.81,-540 2556.73,-539.38 2558.69,-538.68 2560.64,-537.93"/>
<polygon fill="black" stroke="black" points="2562.42,-540.98 2570.24,-533.84 2559.67,-534.54 2562.42,-540.98"/>
</g>
<!-- n72 -->
<g id="node73" class="node">
<title>n72</title>
<ellipse fill="none" stroke="black" cx="2207.81" cy="-450" rx="75.88" ry="18"/>
<text text-anchor="middle" x="2207.81" y="-445.8" font-family="Times,serif" font-size="14.00">INSTRUCCION</text>
</g>
<!-- n71&#45;&gt;n72 -->
<g id="edge72" class="edge">
<title>n71&#45;&gt;n72</title>
<path fill="none" stroke="black" d="M2378.21,-505.46C2343.42,-494.35 2296.61,-479.38 2260.86,-467.96"/>
<polygon fill="black" stroke="black" points="2261.68,-464.54 2251.08,-464.83 2259.54,-471.21 2261.68,-464.54"/>
</g>
<!-- n83 -->
<g id="node84" class="node">
<title>n83</title>
<ellipse fill="none" stroke="black" cx="2426.81" cy="-450" rx="124.52" ry="18"/>
<text text-anchor="middle" x="2426.81" y="-445.8" font-family="Times,serif" font-size="14.00">LISTA_INSTRUCCIONESP</text>
</g>
<!-- n71&#45;&gt;n83 -->
<g id="edge83" class="edge">
<title>n71&#45;&gt;n83</title>
<path fill="none" stroke="black" d="M2426.81,-503.7C2426.81,-495.98 2426.81,-486.71 2426.81,-478.11"/>
<polygon fill="black" stroke="black" points="2430.31,-478.1 2426.81,-468.1 2423.31,-478.1 2430.31,-478.1"/>
</g>
<!-- n86 -->
<g id="node87" class="node">
<title>n86</title>
<ellipse fill="none" stroke="black" cx="2694.81" cy="-450" rx="124.52" ry="18"/>
<text text-anchor="middle" x="2694.81" y="-445.8" font-family="Times,serif" font-size="14.00">LISTA_INSTRUCCIONESP</text>
</g>
<!-- n71&#45;&gt;n86 -->
<g id="edge86" class="edge">
<title>n71&#45;&gt;n86</title>
<path fill="none" stroke="black" d="M2483.64,-506.15C2525.64,-495.19 2582.98,-480.21 2627.31,-468.63"/>
<polygon fill="black" stroke="black" points="2628.34,-471.98 2637.13,-466.07 2626.57,-465.21 2628.34,-471.98"/>
</g>
<!-- n73 -->
<g id="node74" class="node">
<title>n73</title>
<ellipse fill="none" stroke="black" cx="2207.81" cy="-378" rx="167.26" ry="18"/>
<text text-anchor="middle" x="2207.81" y="-373.8" font-family="Times,serif" font-size="14.00">SENTENCIA_RETURN_FUNCIONES</text>
</g>
<!-- n72&#45;&gt;n73 -->
<g id="edge73" class="edge">
<title>n72&#45;&gt;n73</title>
<path fill="none" stroke="black" d="M2207.81,-431.7C2207.81,-423.98 2207.81,-414.71 2207.81,-406.11"/>
<polygon fill="black" stroke="black" points="2211.31,-406.1 2207.81,-396.1 2204.31,-406.1 2211.31,-406.1"/>
</g>
<!-- n74 -->
<g id="node75" class="node">
<title>n74</title>
<ellipse fill="none" stroke="black" cx="2128.81" cy="-306" rx="34.19" ry="18"/>
<text text-anchor="middle" x="2128.81" y="-301.8" font-family="Times,serif" font-size="14.00">return</text>
</g>
<!-- n73&#45;&gt;n74 -->
<g id="edge74" class="edge">
<title>n73&#45;&gt;n74</title>
<path fill="none" stroke="black" d="M2188.69,-360.05C2178,-350.59 2164.57,-338.69 2153.15,-328.56"/>
<polygon fill="black" stroke="black" points="2155.42,-325.9 2145.61,-321.89 2150.77,-331.14 2155.42,-325.9"/>
</g>
<!-- n75 -->
<g id="node76" class="node">
<title>n75</title>
<ellipse fill="none" stroke="black" cx="2207.81" cy="-306" rx="27" ry="18"/>
<text text-anchor="middle" x="2207.81" y="-301.8" font-family="Times,serif" font-size="14.00">E</text>
</g>
<!-- n73&#45;&gt;n75 -->
<g id="edge75" class="edge">
<title>n73&#45;&gt;n75</title>
<path fill="none" stroke="black" d="M2207.81,-359.7C2207.81,-351.98 2207.81,-342.71 2207.81,-334.11"/>
<polygon fill="black" stroke="black" points="2211.31,-334.1 2207.81,-324.1 2204.31,-334.1 2211.31,-334.1"/>
</g>
<!-- n82 -->
<g id="node83" class="node">
<title>n82</title>
<ellipse fill="none" stroke="black" cx="2279.81" cy="-306" rx="27" ry="18"/>
<text text-anchor="middle" x="2279.81" y="-301.8" font-family="Times,serif" font-size="14.00">;</text>
</g>
<!-- n73&#45;&gt;n82 -->
<g id="edge82" class="edge">
<title>n73&#45;&gt;n82</title>
<path fill="none" stroke="black" d="M2225.24,-360.05C2235.02,-350.55 2247.31,-338.59 2257.76,-328.44"/>
<polygon fill="black" stroke="black" points="2260.24,-330.9 2264.97,-321.42 2255.36,-325.89 2260.24,-330.9"/>
</g>
<!-- n76 -->
<g id="node77" class="node">
<title>n76</title>
<ellipse fill="none" stroke="black" cx="2171.81" cy="-234" rx="27" ry="18"/>
<text text-anchor="middle" x="2171.81" y="-229.8" font-family="Times,serif" font-size="14.00">T</text>
</g>
<!-- n75&#45;&gt;n76 -->
<g id="edge76" class="edge">
<title>n75&#45;&gt;n76</title>
<path fill="none" stroke="black" d="M2199.46,-288.76C2195.1,-280.28 2189.66,-269.71 2184.77,-260.2"/>
<polygon fill="black" stroke="black" points="2187.8,-258.44 2180.11,-251.15 2181.57,-261.64 2187.8,-258.44"/>
</g>
<!-- n81 -->
<g id="node82" class="node">
<title>n81</title>
<ellipse fill="none" stroke="black" cx="2243.81" cy="-234" rx="27" ry="18"/>
<text text-anchor="middle" x="2243.81" y="-229.8" font-family="Times,serif" font-size="14.00">EP</text>
</g>
<!-- n75&#45;&gt;n81 -->
<g id="edge81" class="edge">
<title>n75&#45;&gt;n81</title>
<path fill="none" stroke="black" d="M2216.16,-288.76C2220.52,-280.28 2225.96,-269.71 2230.85,-260.2"/>
<polygon fill="black" stroke="black" points="2234.04,-261.64 2235.5,-251.15 2227.82,-258.44 2234.04,-261.64"/>
</g>
<!-- n77 -->
<g id="node78" class="node">
<title>n77</title>
<ellipse fill="none" stroke="black" cx="2135.81" cy="-162" rx="27" ry="18"/>
<text text-anchor="middle" x="2135.81" y="-157.8" font-family="Times,serif" font-size="14.00">F</text>
</g>
<!-- n76&#45;&gt;n77 -->
<g id="edge77" class="edge">
<title>n76&#45;&gt;n77</title>
<path fill="none" stroke="black" d="M2163.46,-216.76C2159.1,-208.28 2153.66,-197.71 2148.77,-188.2"/>
<polygon fill="black" stroke="black" points="2151.8,-186.44 2144.11,-179.15 2145.57,-189.64 2151.8,-186.44"/>
</g>
<!-- n80 -->
<g id="node81" class="node">
<title>n80</title>
<ellipse fill="none" stroke="black" cx="2207.81" cy="-162" rx="27" ry="18"/>
<text text-anchor="middle" x="2207.81" y="-157.8" font-family="Times,serif" font-size="14.00">TP</text>
</g>
<!-- n76&#45;&gt;n80 -->
<g id="edge80" class="edge">
<title>n76&#45;&gt;n80</title>
<path fill="none" stroke="black" d="M2180.16,-216.76C2184.52,-208.28 2189.96,-197.71 2194.85,-188.2"/>
<polygon fill="black" stroke="black" points="2198.04,-189.64 2199.5,-179.15 2191.82,-186.44 2198.04,-189.64"/>
</g>
<!-- n78 -->
<g id="node79" class="node">
<title>n78</title>
<ellipse fill="none" stroke="black" cx="2135.81" cy="-90" rx="27" ry="18"/>
<text text-anchor="middle" x="2135.81" y="-85.8" font-family="Times,serif" font-size="14.00">ID</text>
</g>
<!-- n77&#45;&gt;n78 -->
<g id="edge78" class="edge">
<title>n77&#45;&gt;n78</title>
<path fill="none" stroke="black" d="M2135.81,-143.7C2135.81,-135.98 2135.81,-126.71 2135.81,-118.11"/>
<polygon fill="black" stroke="black" points="2139.31,-118.1 2135.81,-108.1 2132.31,-118.1 2139.31,-118.1"/>
</g>
<!-- n79 -->
<g id="node80" class="node">
<title>n79</title>
<ellipse fill="none" stroke="black" cx="2135.81" cy="-18" rx="46.93" ry="18"/>
<text text-anchor="middle" x="2135.81" y="-13.8" font-family="Times,serif" font-size="14.00">fibonacci</text>
</g>
<!-- n78&#45;&gt;n79 -->
<g id="edge79" class="edge">
<title>n78&#45;&gt;n79</title>
<path fill="none" stroke="black" d="M2135.81,-71.7C2135.81,-63.98 2135.81,-54.71 2135.81,-46.11"/>
<polygon fill="black" stroke="black" points="2139.31,-46.1 2135.81,-36.1 2132.31,-46.1 2139.31,-46.1"/>
</g>
</g>
</svg>
